<svg width="500" height="500" xmlns="http://www.w3.org/2000/svg">
  <rect width="500" height="500" fill="#212529" />
  
  <defs>
    <radialGradient id="grad1" cx="50%" cy="50%" r="50%" fx="50%" fy="50%">
      <stop offset="0%" style="stop-color:#ff922b;stop-opacity:1" />
      <stop offset="100%" style="stop-color:#fd7e14;stop-opacity:1" />
    </radialGradient>
  </defs>
  
  <!-- Starburst rays -->
  <g transform="translate(250, 250)">
    <polygon points="0,-200 20,-20 200,0 20,20 0,200 -20,20 -200,0 -20,-20" fill="url(#grad1)" />
    <polygon points="0,-180 50,-50 180,0 50,50 0,180 -50,50 -180,0 -50,-50" 
             fill="none" stroke="#ffe066" stroke-width="5" transform="rotate(22.5)" />
    <polygon points="0,-150 40,-40 150,0 40,40 0,150 -40,40 -150,0 -40,-40" 
             fill="none" stroke="#fcc419" stroke-width="5" transform="rotate(45)" />
  </g>
  
  <circle cx="250" cy="250" r="50" fill="#ff6b6b" stroke="#f03e3e" stroke-width="5" />
</svg> 