<svg width="500" height="500" xmlns="http://www.w3.org/2000/svg">
  <rect width="500" height="500" fill="#343a40" />
  
  <defs>
    <linearGradient id="gradPurple" x1="0%" y1="0%" x2="100%" y2="100%">
      <stop offset="0%" style="stop-color:#9775fa;stop-opacity:1" />
      <stop offset="100%" style="stop-color:#5f3dc4;stop-opacity:1" />
    </linearGradient>
    <linearGradient id="gradGreen" x1="0%" y1="0%" x2="100%" y2="100%">
      <stop offset="0%" style="stop-color:#69db7c;stop-opacity:1" />
      <stop offset="100%" style="stop-color:#2b8a3e;stop-opacity:1" />
    </linearGradient>
  </defs>
  
  <!-- Back cubes -->
  <rect x="100" y="100" width="100" height="100" fill="url(#gradPurple)" />
  <rect x="300" y="100" width="100" height="100" fill="url(#gradPurple)" />
  <rect x="100" y="300" width="100" height="100" fill="url(#gradPurple)" />
  <rect x="300" y="300" width="100" height="100" fill="url(#gradPurple)" />
  
  <!-- Front cube -->
  <rect x="200" y="200" width="100" height="100" fill="url(#gradGreen)" />
  
  <!-- 3D effect lines -->
  <line x1="100" y1="100" x2="200" y2="200" stroke="#adb5bd" stroke-width="3" />
  <line x1="200" y1="100" x2="250" y2="200" stroke="#adb5bd" stroke-width="3" />
  <line x1="300" y1="100" x2="300" y2="200" stroke="#adb5bd" stroke-width="3" />
  <line x1="400" y1="100" x2="300" y2="200" stroke="#adb5bd" stroke-width="3" />
  <line x1="100" y1="200" x2="200" y2="250" stroke="#adb5bd" stroke-width="3" />
  <line x1="400" y1="200" x2="300" y2="250" stroke="#adb5bd" stroke-width="3" />
  <line x1="100" y1="300" x2="200" y2="300" stroke="#adb5bd" stroke-width="3" />
  <line x1="100" y1="400" x2="200" y2="300" stroke="#adb5bd" stroke-width="3" />
  <line x1="400" y1="300" x2="300" y2="300" stroke="#adb5bd" stroke-width="3" />
  <line x1="400" y1="400" x2="300" y2="300" stroke="#adb5bd" stroke-width="3" />
</svg> 