<svg width="500" height="500" xmlns="http://www.w3.org/2000/svg">
  <rect width="500" height="500" fill="#1a1a2e" />
  
  <!-- Sunset background gradient -->
  <defs>
    <linearGradient id="skyGradient" x1="0%" y1="0%" x2="0%" y2="100%">
      <stop offset="0%" style="stop-color:#0a0a23;stop-opacity:1" />
      <stop offset="50%" style="stop-color:#16213e;stop-opacity:1" />
      <stop offset="80%" style="stop-color:#e94560;stop-opacity:1" />
      <stop offset="100%" style="stop-color:#ff9e00;stop-opacity:1" />
    </linearGradient>
  </defs>
  
  <!-- Sky background -->
  <rect width="500" height="350" fill="url(#skyGradient)" />
  
  <!-- Sun -->
  <circle cx="250" cy="250" r="80" fill="#ff9e00" />
  <circle cx="250" cy="250" r="60" fill="#ff6b6b" />
  
  <!-- Grid horizon -->
  <line x1="0" y1="350" x2="500" y2="350" stroke="#ff6b6b" stroke-width="3" />
  
  <!-- Grid lines -->
  <g stroke="#e94560" stroke-width="2">
    <!-- Horizontal grid lines -->
    <line x1="0" y1="370" x2="500" y2="370" />
    <line x1="0" y1="390" x2="500" y2="390" />
    <line x1="0" y1="410" x2="500" y2="410" />
    <line x1="0" y1="430" x2="500" y2="430" />
    <line x1="0" y1="450" x2="500" y2="450" />
    <line x1="0" y1="470" x2="500" y2="470" />
    <line x1="0" y1="490" x2="500" y2="490" />
    
    <!-- Vertical grid lines converging to center -->
    <line x1="50" y1="350" x2="125" y2="500" />
    <line x1="100" y1="350" x2="150" y2="500" />
    <line x1="150" y1="350" x2="175" y2="500" />
    <line x1="200" y1="350" x2="200" y2="500" />
    <line x1="250" y1="350" x2="250" y2="500" />
    <line x1="300" y1="350" x2="300" y2="500" />
    <line x1="350" y1="350" x2="325" y2="500" />
    <line x1="400" y1="350" x2="350" y2="500" />
    <line x1="450" y1="350" x2="375" y2="500" />
  </g>
  
  <!-- Mountains -->
  <polygon points="0,350 100,250 200,330 300,200 400,300 500,180 500,350" fill="#0a0a23" />
</svg> 