<svg width="500" height="500" xmlns="http://www.w3.org/2000/svg">
  <!-- Sky -->
  <rect width="500" height="500" fill="#4dabf7" />
  
  <!-- Sun -->
  <rect x="50" y="50" width="50" height="50" fill="#ffd43b" />
  
  <!-- Clouds -->
  <rect x="150" y="80" width="40" height="20" fill="#f8f9fa" />
  <rect x="190" y="80" width="30" height="20" fill="#f8f9fa" />
  <rect x="160" y="60" width="40" height="20" fill="#f8f9fa" />
  
  <rect x="350" y="120" width="40" height="20" fill="#f8f9fa" />
  <rect x="390" y="120" width="30" height="20" fill="#f8f9fa" />
  <rect x="360" y="100" width="40" height="20" fill="#f8f9fa" />
  
  <!-- Mountains -->
  <polygon points="0,200 50,150 100,180 150,120 200,170 250,130 300,190 350,140 400,180 450,150 500,190 500,300 0,300" fill="#5f3dc4" />
  <polygon points="0,240 50,200 100,220 150,190 200,230 250,200 300,250 350,210 400,240 450,210 500,230 500,300 0,300" fill="#7950f2" />
  
  <!-- Hills -->
  <rect x="0" y="300" width="500" height="100" fill="#40c057" />
  
  <!-- Trees -->
  <rect x="80" y="250" width="20" height="50" fill="#2b8a3e" />
  <rect x="70" y="230" width="40" height="20" fill="#2b8a3e" />
  <rect x="80" y="210" width="20" height="20" fill="#2b8a3e" />
  
  <rect x="380" y="270" width="20" height="30" fill="#2b8a3e" />
  <rect x="370" y="250" width="40" height="20" fill="#2b8a3e" />
  <rect x="380" y="230" width="20" height="20" fill="#2b8a3e" />
  
  <!-- Ground -->
  <rect x="0" y="400" width="500" height="100" fill="#e67700" />
  
  <!-- Path -->
  <rect x="200" y="400" width="100" height="100" fill="#f08c00" />
  
  <!-- House -->
  <rect x="220" y="320" width="60" height="40" fill="#c92a2a" />
  <rect x="230" y="340" width="15" height="20" fill="#495057" />
  <rect x="255" y="330" width="15" height="15" fill="#ced4da" />
  <polygon points="220,320 250,290 280,320" fill="#495057" />
</svg> 