<svg width="500" height="500" xmlns="http://www.w3.org/2000/svg">
  <rect width="500" height="500" fill="#1e1e1e" />
  
  <!-- Circuit board trace lines -->
  <g stroke="#15aabf" stroke-width="3" fill="none">
    <!-- Horizontal lines -->
    <path d="M50,50 h400" />
    <path d="M50,100 h150 h50 h150" />
    <path d="M50,150 h100 h150 h100" />
    <path d="M50,200 h200 h100" />
    <path d="M50,250 h100 h100 h150" />
    <path d="M50,300 h200 h150" />
    <path d="M50,350 h150 h200" />
    <path d="M50,400 h350" />
    <path d="M50,450 h400" />
    
    <!-- Vertical lines -->
    <path d="M50,50 v400" />
    <path d="M100,150 v100" />
    <path d="M150,100 v50 v100 v150" />
    <path d="M200,150 v200" />
    <path d="M250,200 v100 v100" />
    <path d="M300,150 v150" />
    <path d="M350,100 v250" />
    <path d="M400,50 v150 v100 v150" />
    <path d="M450,50 v400" />
  </g>
  
  <!-- Connection points (circles) -->
  <g fill="#38d9a9">
    <circle cx="50" cy="50" r="5" />
    <circle cx="50" cy="100" r="5" />
    <circle cx="50" cy="150" r="5" />
    <circle cx="50" cy="200" r="5" />
    <circle cx="50" cy="250" r="5" />
    <circle cx="50" cy="300" r="5" />
    <circle cx="50" cy="350" r="5" />
    <circle cx="50" cy="400" r="5" />
    <circle cx="50" cy="450" r="5" />
    
    <circle cx="150" cy="100" r="5" />
    <circle cx="150" cy="150" r="5" />
    <circle cx="150" cy="250" r="5" />
    <circle cx="150" cy="350" r="5" />
    
    <circle cx="200" cy="150" r="5" />
    <circle cx="200" cy="200" r="5" />
    <circle cx="200" cy="300" r="5" />
    <circle cx="200" cy="350" r="5" />
    
    <circle cx="250" cy="200" r="5" />
    <circle cx="250" cy="250" r="5" />
    <circle cx="250" cy="300" r="5" />
    <circle cx="250" cy="400" r="5" />
    
    <circle cx="300" cy="150" r="5" />
    <circle cx="300" cy="250" r="5" />
    <circle cx="300" cy="300" r="5" />
    
    <circle cx="350" cy="100" r="5" />
    <circle cx="350" cy="200" r="5" />
    <circle cx="350" cy="350" r="5" />
    
    <circle cx="400" cy="50" r="5" />
    <circle cx="400" cy="200" r="5" />
    <circle cx="400" cy="300" r="5" />
    <circle cx="400" cy="450" r="5" />
    
    <circle cx="450" cy="50" r="5" />
    <circle cx="450" cy="100" r="5" />
    <circle cx="450" cy="150" r="5" />
    <circle cx="450" cy="200" r="5" />
    <circle cx="450" cy="250" r="5" />
    <circle cx="450" cy="300" r="5" />
    <circle cx="450" cy="350" r="5" />
    <circle cx="450" cy="400" r="5" />
    <circle cx="450" cy="450" r="5" />
  </g>
  
  <!-- IC chips -->
  <g>
    <rect x="100" y="250" width="50" height="100" fill="#1098ad" stroke="#0b7285" stroke-width="2" />
    <rect x="300" y="100" width="50" height="50" fill="#1098ad" stroke="#0b7285" stroke-width="2" />
    <rect x="350" cy="250" width="50" height="100" fill="#1098ad" stroke="#0b7285" stroke-width="2" />
  </g>
</svg> 