<svg width="500" height="500" xmlns="http://www.w3.org/2000/svg">
  <rect width="500" height="500" fill="#1a1a2e" />
  
  <defs>
    <linearGradient id="grad1" x1="0%" y1="0%" x2="100%" y2="100%">
      <stop offset="0%" style="stop-color:#fb8500;stop-opacity:1" />
      <stop offset="100%" style="stop-color:#ffb703;stop-opacity:1" />
    </linearGradient>
  </defs>
  
  <g transform="translate(250, 250)">
    <!-- Base circles -->
    <circle cx="0" cy="0" r="150" fill="none" stroke="url(#grad1)" stroke-width="2" />
    <circle cx="0" cy="0" r="120" fill="none" stroke="url(#grad1)" stroke-width="2" />
    <circle cx="0" cy="0" r="90" fill="none" stroke="url(#grad1)" stroke-width="2" />
    <circle cx="0" cy="0" r="60" fill="none" stroke="url(#grad1)" stroke-width="2" />
    <circle cx="0" cy="0" r="30" fill="none" stroke="url(#grad1)" stroke-width="2" />
    
    <!-- Radial lines -->
    <g stroke="#fb8500" stroke-width="2">
      <line x1="0" y1="-150" x2="0" y2="150" />
      <line x1="-150" y1="0" x2="150" y2="0" />
      <line x1="-106" y1="-106" x2="106" y2="106" />
      <line x1="106" y1="-106" x2="-106" y2="106" />
    </g>
    
    <!-- Rotated squares -->
    <rect x="-70" y="-70" width="140" height="140" fill="none" stroke="#fb8500" stroke-width="2" transform="rotate(45)" />
    <rect x="-100" y="-100" width="200" height="200" fill="none" stroke="#fb8500" stroke-width="2" transform="rotate(22.5)" />
    
    <!-- Decorative elements -->
    <g fill="#fb8500">
      <circle cx="0" cy="-150" r="5" />
      <circle cx="0" cy="150" r="5" />
      <circle cx="-150" cy="0" r="5" />
      <circle cx="150" cy="0" r="5" />
      <circle cx="-106" cy="-106" r="5" />
      <circle cx="106" cy="106" r="5" />
      <circle cx="106" cy="-106" r="5" />
      <circle cx="-106" cy="106" r="5" />
    </g>
  </g>
</svg> 