<svg width="500" height="500" xmlns="http://www.w3.org/2000/svg">
  <rect width="500" height="500" fill="#f1faee" />
  
  <defs>
    <linearGradient id="gradA" x1="0%" y1="0%" x2="100%" y2="0%">
      <stop offset="0%" style="stop-color:#e63946;stop-opacity:1" />
      <stop offset="100%" style="stop-color:#e76f51;stop-opacity:1" />
    </linearGradient>
    <linearGradient id="gradB" x1="0%" y1="0%" x2="100%" y2="0%">
      <stop offset="0%" style="stop-color:#1d3557;stop-opacity:1" />
      <stop offset="100%" style="stop-color:#457b9d;stop-opacity:1" />
    </linearGradient>
  </defs>
  
  <!-- Background pattern -->
  <g fill="#a8dadc" fill-opacity="0.2">
    <circle cx="100" cy="100" r="50" />
    <circle cx="400" cy="100" r="30" />
    <circle cx="150" cy="400" r="40" />
    <circle cx="400" cy="350" r="60" />
  </g>
  
  <!-- DNA Helix -->
  <g transform="translate(250, 250)">
    <!-- Helix backbones -->
    <path d="M 0,-200 
              C 60,-180 -60,-140 0,-120 
              C 60,-100 -60,-60 0,-40 
              C 60,-20 -60,20 0,40 
              C 60,60 -60,100 0,120 
              C 60,140 -60,180 0,200" 
          fill="none" stroke="url(#gradA)" stroke-width="3" />
    
    <path d="M 0,-200 
              C -60,-180 60,-140 0,-120 
              C -60,-100 60,-60 0,-40 
              C -60,-20 60,20 0,40 
              C -60,60 60,100 0,120 
              C -60,140 60,180 0,200" 
          fill="none" stroke="url(#gradB)" stroke-width="3" />
    
    <!-- Base pairs -->
    <line x1="-40" y1="-180" x2="40" y2="-180" stroke="#e63946" stroke-width="2" />
    <line x1="-35" y1="-160" x2="35" y2="-160" stroke="#1d3557" stroke-width="2" />
    <line x1="-30" y1="-140" x2="30" y2="-140" stroke="#e63946" stroke-width="2" />
    <line x1="-25" y1="-120" x2="25" y2="-120" stroke="#1d3557" stroke-width="2" />
    <line x1="-30" y1="-100" x2="30" y2="-100" stroke="#e63946" stroke-width="2" />
    <line x1="-35" y1="-80" x2="35" y2="-80" stroke="#1d3557" stroke-width="2" />
    <line x1="-40" y1="-60" x2="40" y2="-60" stroke="#e63946" stroke-width="2" />
    <line x1="-35" y1="-40" x2="35" y2="-40" stroke="#1d3557" stroke-width="2" />
    <line x1="-30" y1="-20" x2="30" y2="-20" stroke="#e63946" stroke-width="2" />
    <line x1="-25" y1="0" x2="25" y2="0" stroke="#1d3557" stroke-width="2" />
    <line x1="-30" y1="20" x2="30" y2="20" stroke="#e63946" stroke-width="2" />
    <line x1="-35" y1="40" x2="35" y2="40" stroke="#1d3557" stroke-width="2" />
    <line x1="-40" y1="60" x2="40" y2="60" stroke="#e63946" stroke-width="2" />
    <line x1="-35" y1="80" x2="35" y2="80" stroke="#1d3557" stroke-width="2" />
    <line x1="-30" y1="100" x2="30" y2="100" stroke="#e63946" stroke-width="2" />
    <line x1="-25" y1="120" x2="25" y2="120" stroke="#1d3557" stroke-width="2" />
    <line x1="-30" y1="140" x2="30" y2="140" stroke="#e63946" stroke-width="2" />
    <line x1="-35" y1="160" x2="35" y2="160" stroke="#1d3557" stroke-width="2" />
    <line x1="-40" y1="180" x2="40" y2="180" stroke="#e63946" stroke-width="2" />
    
    <!-- Base pair nodes -->
    <circle cx="-40" cy="-180" r="4" fill="#e63946" />
    <circle cx="40" cy="-180" r="4" fill="#e63946" />
    <circle cx="-35" cy="-160" r="4" fill="#1d3557" />
    <circle cx="35" cy="-160" r="4" fill="#1d3557" />
    <circle cx="-30" cy="-140" r="4" fill="#e63946" />
    <circle cx="30" cy="-140" r="4" fill="#e63946" />
    <circle cx="-25" cy="-120" r="4" fill="#1d3557" />
    <circle cx="25" cy="-120" r="4" fill="#1d3557" />
    <circle cx="-30" cy="-100" r="4" fill="#e63946" />
    <circle cx="30" cy="-100" r="4" fill="#e63946" />
    <circle cx="-35" cy="-80" r="4" fill="#1d3557" />
    <circle cx="35" cy="-80" r="4" fill="#1d3557" />
    <circle cx="-40" cy="-60" r="4" fill="#e63946" />
    <circle cx="40" cy="-60" r="4" fill="#e63946" />
    <circle cx="-35" cy="-40" r="4" fill="#1d3557" />
    <circle cx="35" cy="-40" r="4" fill="#1d3557" />
    <circle cx="-30" cy="-20" r="4" fill="#e63946" />
    <circle cx="30" cy="-20" r="4" fill="#e63946" />
    <circle cx="-25" cy="0" r="4" fill="#1d3557" />
    <circle cx="25" cy="0" r="4" fill="#1d3557" />
    <circle cx="-30" cy="20" r="4" fill="#e63946" />
    <circle cx="30" cy="20" r="4" fill="#e63946" />
    <circle cx="-35" cy="40" r="4" fill="#1d3557" />
    <circle cx="35" cy="40" r="4" fill="#1d3557" />
    <circle cx="-40" cy="60" r="4" fill="#e63946" />
    <circle cx="40" cy="60" r="4" fill="#e63946" />
    <circle cx="-35" cy="80" r="4" fill="#1d3557" />
    <circle cx="35" cy="80" r="4" fill="#1d3557" />
    <circle cx="-30" cy="100" r="4" fill="#e63946" />
    <circle cx="30" cy="100" r="4" fill="#e63946" />
    <circle cx="-25" cy="120" r="4" fill="#1d3557" />
    <circle cx="25" cy="120" r="4" fill="#1d3557" />
    <circle cx="-30" cy="140" r="4" fill="#e63946" />
    <circle cx="30" cy="140" r="4" fill="#e63946" />
    <circle cx="-35" cy="160" r="4" fill="#1d3557" />
    <circle cx="35" cy="160" r="4" fill="#1d3557" />
    <circle cx="-40" cy="180" r="4" fill="#e63946" />
    <circle cx="40" cy="180" r="4" fill="#e63946" />
  </g>
</svg> 