<svg width="500" height="500" xmlns="http://www.w3.org/2000/svg">
  <!-- Sky background with gradient -->
  <defs>
    <linearGradient id="skyGradient" x1="0%" y1="0%" x2="0%" y2="100%">
      <stop offset="0%" style="stop-color:#0c0032;stop-opacity:1" />
      <stop offset="70%" style="stop-color:#190061;stop-opacity:1" />
      <stop offset="100%" style="stop-color:#240090;stop-opacity:1" />
    </linearGradient>
  </defs>
  
  <rect width="500" height="500" fill="url(#skyGradient)" />
  
  <!-- Stars -->
  <g fill="#ffffff">
    <circle cx="50" cy="50" r="1" />
    <circle cx="120" cy="80" r="1" />
    <circle cx="200" cy="30" r="1" />
    <circle cx="280" cy="70" r="1" />
    <circle cx="350" cy="40" r="1" />
    <circle cx="430" cy="60" r="1" />
    <circle cx="470" cy="20" r="1" />
    
    <circle cx="30" cy="120" r="1" />
    <circle cx="80" cy="150" r="1" />
    <circle cx="180" cy="130" r="1" />
    <circle cx="240" cy="100" r="1" />
    <circle cx="320" cy="140" r="1" />
    <circle cx="390" cy="110" r="1" />
    <circle cx="450" cy="150" r="1" />
    
    <circle cx="50" cy="200" r="1" />
    <circle cx="100" cy="170" r="1" />
    <circle cx="160" cy="220" r="1" />
    <circle cx="220" cy="180" r="1" />
    <circle cx="300" cy="210" r="1" />
    <circle cx="370" cy="190" r="1" />
    <circle cx="420" cy="230" r="1" />
    <circle cx="480" cy="180" r="1" />
  </g>
  
  <!-- Moon -->
  <circle cx="400" cy="80" r="30" fill="#f1dca7" />
  <circle cx="385" cy="70" r="8" fill="#d6c6a5" />
  <circle cx="405" cy="90" r="6" fill="#d6c6a5" />
  <circle cx="410" cy="65" r="5" fill="#d6c6a5" />
  
  <!-- City buildings with neon outlines -->
  <g>
    <!-- Skyscrapers in background -->
    <rect x="20" y="250" width="30" height="250" fill="#1c0b59" />
    <rect x="60" y="280" width="20" height="220" fill="#360f69" />
    <rect x="90" y="260" width="40" height="240" fill="#1c0b59" />
    <rect x="140" y="200" width="25" height="300" fill="#360f69" />
    <rect x="175" y="240" width="35" height="260" fill="#1c0b59" />
    <rect x="220" y="220" width="30" height="280" fill="#360f69" />
    <rect x="260" y="190" width="45" height="310" fill="#1c0b59" />
    <rect x="315" y="230" width="25" height="270" fill="#360f69" />
    <rect x="350" y="210" width="30" height="290" fill="#1c0b59" />
    <rect x="390" y="270" width="40" height="230" fill="#360f69" />
    <rect x="440" y="250" width="35" height="250" fill="#1c0b59" />
    
    <!-- Windows -->
    <g fill="#30cfd0">
      <!-- Building 1 -->
      <rect x="25" y="260" width="5" height="10" />
      <rect x="35" y="260" width="5" height="10" />
      <rect x="25" y="280" width="5" height="10" />
      <rect x="35" y="280" width="5" height="10" />
      <rect x="25" y="300" width="5" height="10" />
      <rect x="35" y="300" width="5" height="10" />
      <rect x="25" y="320" width="5" height="10" />
      <rect x="35" y="320" width="5" height="10" />
      <rect x="25" y="340" width="5" height="10" />
      <rect x="35" y="340" width="5" height="10" />
      <rect x="25" y="360" width="5" height="10" />
      <rect x="35" y="360" width="5" height="10" />
      <rect x="25" y="380" width="5" height="10" />
      <rect x="35" y="380" width="5" height="10" />
      
      <!-- Building 3 -->
      <rect x="95" y="270" width="8" height="12" />
      <rect x="115" y="270" width="8" height="12" />
      <rect x="95" y="295" width="8" height="12" />
      <rect x="115" y="295" width="8" height="12" />
      <rect x="95" y="320" width="8" height="12" />
      <rect x="115" y="320" width="8" height="12" />
      <rect x="95" y="345" width="8" height="12" />
      <rect x="115" y="345" width="8" height="12" />
      <rect x="95" y="370" width="8" height="12" />
      <rect x="115" y="370" width="8" height="12" />
      
      <!-- Building 5 -->
      <rect x="180" y="250" width="6" height="15" />
      <rect x="195" y="250" width="6" height="15" />
      <rect x="180" y="280" width="6" height="15" />
      <rect x="195" y="280" width="6" height="15" />
      <rect x="180" y="310" width="6" height="15" />
      <rect x="195" y="310" width="6" height="15" />
      <rect x="180" y="340" width="6" height="15" />
      <rect x="195" y="340" width="6" height="15" />
      <rect x="180" y="370" width="6" height="15" />
      <rect x="195" y="370" width="6" height="15" />
    </g>
    
    <g fill="#330867">
      <!-- Building 2 -->
      <rect x="63" y="290" width="4" height="8" />
      <rect x="73" y="290" width="4" height="8" />
      <rect x="63" y="310" width="4" height="8" />
      <rect x="73" y="310" width="4" height="8" />
      <rect x="63" y="330" width="4" height="8" />
      <rect x="73" y="330" width="4" height="8" />
      <rect x="63" y="350" width="4" height="8" />
      <rect x="73" y="350" width="4" height="8" />
      <rect x="63" y="370" width="4" height="8" />
      <rect x="73" y="370" width="4" height="8" />
      <rect x="63" y="390" width="4" height="8" />
      <rect x="73" y="390" width="4" height="8" />
      
      <!-- Building 4 -->
      <rect x="145" y="210" width="5" height="10" />
      <rect x="155" y="210" width="5" height="10" />
      <rect x="145" y="230" width="5" height="10" />
      <rect x="155" y="230" width="5" height="10" />
      <rect x="145" y="250" width="5" height="10" />
      <rect x="155" y="250" width="5" height="10" />
      <rect x="145" y="270" width="5" height="10" />
      <rect x="155" y="270" width="5" height="10" />
      <rect x="145" y="290" width="5" height="10" />
      <rect x="155" y="290" width="5" height="10" />
      <rect x="145" y="310" width="5" height="10" />
      <rect x="155" y="310" width="5" height="10" />
      <rect x="145" y="330" width="5" height="10" />
      <rect x="155" y="330" width="5" height="10" />
    </g>
  </g>
  
  <!-- Neon outlines -->
  <g stroke="#fc5c7d" stroke-width="1" fill="none">
    <rect x="260" y="190" width="45" height="310" />
    <rect x="175" y="240" width="35" height="260" />
    <rect x="440" y="250" width="35" height="250" />
    <rect x="20" y="250" width="30" height="250" />
  </g>
  
  <g stroke="#6a82fb" stroke-width="1" fill="none">
    <rect x="140" y="200" width="25" height="300" />
    <rect x="350" y="210" width="30" height="290" />
    <rect x="90" y="260" width="40" height="240" />
    <rect x="390" y="270" width="40" height="230" />
  </g>
</svg> 