<svg width="500" height="500" xmlns="http://www.w3.org/2000/svg">
  <rect width="500" height="500" fill="#000814" />
  
  <defs>
    <linearGradient id="topGradient" x1="0%" y1="0%" x2="100%" y2="0%">
      <stop offset="0%" style="stop-color:#ff9e00;stop-opacity:1" />
      <stop offset="100%" style="stop-color:#ff4e00;stop-opacity:1" />
    </linearGradient>
    <linearGradient id="leftGradient" x1="0%" y1="0%" x2="100%" y2="0%">
      <stop offset="0%" style="stop-color:#ff006e;stop-opacity:1" />
      <stop offset="100%" style="stop-color:#8338ec;stop-opacity:1" />
    </linearGradient>
    <linearGradient id="rightGradient" x1="0%" y1="0%" x2="100%" y2="0%">
      <stop offset="0%" style="stop-color:#3a86ff;stop-opacity:1" />
      <stop offset="100%" style="stop-color:#00f5d4;stop-opacity:1" />
    </linearGradient>
  </defs>
  
  <!-- Grid of isometric cubes -->
  
  <!-- Row 1 -->
  <g transform="translate(50, 100)">
    <!-- Cube 1 -->
    <polygon points="0,30 50,0 100,30 50,60" fill="url(#topGradient)" />
    <polygon points="0,30 0,80 50,110 50,60" fill="url(#leftGradient)" />
    <polygon points="50,60 50,110 100,80 100,30" fill="url(#rightGradient)" />
  </g>
  
  <g transform="translate(150, 100)">
    <!-- Cube 2 -->
    <polygon points="0,30 50,0 100,30 50,60" fill="url(#topGradient)" />
    <polygon points="0,30 0,80 50,110 50,60" fill="url(#leftGradient)" />
    <polygon points="50,60 50,110 100,80 100,30" fill="url(#rightGradient)" />
  </g>
  
  <g transform="translate(250, 100)">
    <!-- Cube 3 -->
    <polygon points="0,30 50,0 100,30 50,60" fill="url(#topGradient)" />
    <polygon points="0,30 0,80 50,110 50,60" fill="url(#leftGradient)" />
    <polygon points="50,60 50,110 100,80 100,30" fill="url(#rightGradient)" />
  </g>
  
  <g transform="translate(350, 100)">
    <!-- Cube 4 -->
    <polygon points="0,30 50,0 100,30 50,60" fill="url(#topGradient)" />
    <polygon points="0,30 0,80 50,110 50,60" fill="url(#leftGradient)" />
    <polygon points="50,60 50,110 100,80 100,30" fill="url(#rightGradient)" />
  </g>
  
  <!-- Row 2 -->
  <g transform="translate(0, 150)">
    <!-- Cube 5 -->
    <polygon points="0,30 50,0 100,30 50,60" fill="url(#topGradient)" />
    <polygon points="0,30 0,80 50,110 50,60" fill="url(#leftGradient)" />
    <polygon points="50,60 50,110 100,80 100,30" fill="url(#rightGradient)" />
  </g>
  
  <g transform="translate(100, 150)">
    <!-- Cube 6 -->
    <polygon points="0,30 50,0 100,30 50,60" fill="url(#topGradient)" />
    <polygon points="0,30 0,80 50,110 50,60" fill="url(#leftGradient)" />
    <polygon points="50,60 50,110 100,80 100,30" fill="url(#rightGradient)" />
  </g>
  
  <g transform="translate(200, 150)">
    <!-- Cube 7 -->
    <polygon points="0,30 50,0 100,30 50,60" fill="url(#topGradient)" />
    <polygon points="0,30 0,80 50,110 50,60" fill="url(#leftGradient)" />
    <polygon points="50,60 50,110 100,80 100,30" fill="url(#rightGradient)" />
  </g>
  
  <g transform="translate(300, 150)">
    <!-- Cube 8 -->
    <polygon points="0,30 50,0 100,30 50,60" fill="url(#topGradient)" />
    <polygon points="0,30 0,80 50,110 50,60" fill="url(#leftGradient)" />
    <polygon points="50,60 50,110 100,80 100,30" fill="url(#rightGradient)" />
  </g>
  
  <g transform="translate(400, 150)">
    <!-- Cube 9 -->
    <polygon points="0,30 50,0 100,30 50,60" fill="url(#topGradient)" />
    <polygon points="0,30 0,80 50,110 50,60" fill="url(#leftGradient)" />
    <polygon points="50,60 50,110 100,80 100,30" fill="url(#rightGradient)" />
  </g>
  
  <!-- Row 3 -->
  <g transform="translate(50, 250)">
    <!-- Cube 10 -->
    <polygon points="0,30 50,0 100,30 50,60" fill="url(#topGradient)" />
    <polygon points="0,30 0,80 50,110 50,60" fill="url(#leftGradient)" />
    <polygon points="50,60 50,110 100,80 100,30" fill="url(#rightGradient)" />
  </g>
  
  <g transform="translate(150, 250)">
    <!-- Cube 11 -->
    <polygon points="0,30 50,0 100,30 50,60" fill="url(#topGradient)" />
    <polygon points="0,30 0,80 50,110 50,60" fill="url(#leftGradient)" />
    <polygon points="50,60 50,110 100,80 100,30" fill="url(#rightGradient)" />
  </g>
  
  <g transform="translate(250, 250)">
    <!-- Cube 12 -->
    <polygon points="0,30 50,0 100,30 50,60" fill="url(#topGradient)" />
    <polygon points="0,30 0,80 50,110 50,60" fill="url(#leftGradient)" />
    <polygon points="50,60 50,110 100,80 100,30" fill="url(#rightGradient)" />
  </g>
  
  <g transform="translate(350, 250)">
    <!-- Cube 13 -->
    <polygon points="0,30 50,0 100,30 50,60" fill="url(#topGradient)" />
    <polygon points="0,30 0,80 50,110 50,60" fill="url(#leftGradient)" />
    <polygon points="50,60 50,110 100,80 100,30" fill="url(#rightGradient)" />
  </g>
  
  <!-- Row 4 -->
  <g transform="translate(0, 300)">
    <!-- Cube 14 -->
    <polygon points="0,30 50,0 100,30 50,60" fill="url(#topGradient)" />
    <polygon points="0,30 0,80 50,110 50,60" fill="url(#leftGradient)" />
    <polygon points="50,60 50,110 100,80 100,30" fill="url(#rightGradient)" />
  </g>
  
  <g transform="translate(100, 300)">
    <!-- Cube 15 -->
    <polygon points="0,30 50,0 100,30 50,60" fill="url(#topGradient)" />
    <polygon points="0,30 0,80 50,110 50,60" fill="url(#leftGradient)" />
    <polygon points="50,60 50,110 100,80 100,30" fill="url(#rightGradient)" />
  </g>
  
  <g transform="translate(200, 300)">
    <!-- Cube 16 -->
    <polygon points="0,30 50,0 100,30 50,60" fill="url(#topGradient)" />
    <polygon points="0,30 0,80 50,110 50,60" fill="url(#leftGradient)" />
    <polygon points="50,60 50,110 100,80 100,30" fill="url(#rightGradient)" />
  </g>
  
  <g transform="translate(300, 300)">
    <!-- Cube 17 -->
    <polygon points="0,30 50,0 100,30 50,60" fill="url(#topGradient)" />
    <polygon points="0,30 0,80 50,110 50,60" fill="url(#leftGradient)" />
    <polygon points="50,60 50,110 100,80 100,30" fill="url(#rightGradient)" />
  </g>
  
  <g transform="translate(400, 300)">
    <!-- Cube 18 -->
    <polygon points="0,30 50,0 100,30 50,60" fill="url(#topGradient)" />
    <polygon points="0,30 0,80 50,110 50,60" fill="url(#leftGradient)" />
    <polygon points="50,60 50,110 100,80 100,30" fill="url(#rightGradient)" />
  </g>
</svg> 