<svg width="500" height="500" xmlns="http://www.w3.org/2000/svg">
  <rect width="500" height="500" fill="#ffffff" />
  
  <defs>
    <!-- Watercolor textures -->
    <radialGradient id="splash1" cx="50%" cy="50%" r="70%" fx="50%" fy="50%">
      <stop offset="0%" style="stop-color:#ff9aa2;stop-opacity:0.9" />
      <stop offset="70%" style="stop-color:#ff9aa2;stop-opacity:0.5" />
      <stop offset="100%" style="stop-color:#ff9aa2;stop-opacity:0" />
    </radialGradient>
    
    <radialGradient id="splash2" cx="50%" cy="50%" r="70%" fx="40%" fy="60%">
      <stop offset="0%" style="stop-color:#ffdac1;stop-opacity:0.9" />
      <stop offset="70%" style="stop-color:#ffdac1;stop-opacity:0.5" />
      <stop offset="100%" style="stop-color:#ffdac1;stop-opacity:0" />
    </radialGradient>
    
    <radialGradient id="splash3" cx="50%" cy="50%" r="70%" fx="60%" fy="40%">
      <stop offset="0%" style="stop-color:#b5ead7;stop-opacity:0.9" />
      <stop offset="70%" style="stop-color:#b5ead7;stop-opacity:0.5" />
      <stop offset="100%" style="stop-color:#b5ead7;stop-opacity:0" />
    </radialGradient>
    
    <radialGradient id="splash4" cx="50%" cy="50%" r="70%" fx="30%" fy="70%">
      <stop offset="0%" style="stop-color:#c7ceea;stop-opacity:0.9" />
      <stop offset="70%" style="stop-color:#c7ceea;stop-opacity:0.5" />
      <stop offset="100%" style="stop-color:#c7ceea;stop-opacity:0" />
    </radialGradient>
    
    <!-- Watercolor filter -->
    <filter id="watercolor" x="-50%" y="-50%" width="200%" height="200%">
      <feTurbulence type="fractalNoise" baseFrequency="0.01" numOctaves="3" seed="0" />
      <feDisplacementMap in="SourceGraphic" scale="20" />
    </filter>
    
    <filter id="dropShadow" x="-20%" y="-20%" width="140%" height="140%">
      <feGaussianBlur in="SourceAlpha" stdDeviation="2" />
      <feOffset dx="2" dy="2" />
      <feComponentTransfer>
        <feFuncA type="linear" slope="0.2" />
      </feComponentTransfer>
      <feMerge>
        <feMergeNode />
        <feMergeNode in="SourceGraphic" />
      </feMerge>
    </filter>
  </defs>
  
  <!-- Watercolor splashes -->
  <g filter="url(#watercolor)">
    <circle cx="150" cy="150" r="100" fill="url(#splash1)" />
    <circle cx="300" cy="130" r="80" fill="url(#splash2)" />
    <circle cx="350" cy="300" r="100" fill="url(#splash3)" />
    <circle cx="150" cy="320" r="90" fill="url(#splash4)" />
    <circle cx="250" cy="230" r="120" fill="url(#splash1)" opacity="0.6" />
  </g>
  
  <!-- Ink splatters -->
  <g fill="#333333" opacity="0.7" filter="url(#dropShadow)">
    <circle cx="200" cy="150" r="5" />
    <circle cx="210" cy="160" r="3" />
    <circle cx="190" cy="155" r="2" />
    <circle cx="205" cy="140" r="4" />
    <circle cx="195" cy="145" r="1" />
    
    <circle cx="350" cy="250" r="4" />
    <circle cx="340" cy="255" r="6" />
    <circle cx="355" cy="240" r="2" />
    <circle cx="345" cy="260" r="3" />
    <circle cx="335" cy="245" r="1" />
    
    <circle cx="150" cy="350" r="7" />
    <circle cx="160" cy="340" r="4" />
    <circle cx="155" cy="360" r="2" />
    <circle cx="165" cy="350" r="3" />
    <circle cx="145" cy="355" r="5" />
  </g>
  
  <!-- Signature -->
  <path d="M380,380 c5,-10 10,-5 15,0 s10,5 15,-5" stroke="#333333" stroke-width="1" fill="none" />
</svg> 