<svg width="500" height="500" xmlns="http://www.w3.org/2000/svg">
  <rect width="500" height="500" fill="#e9edc9" />
  
  <defs>
    <linearGradient id="elevationGradient" x1="0%" y1="0%" x2="0%" y2="100%">
      <stop offset="0%" style="stop-color:#483c32;stop-opacity:1" />
      <stop offset="20%" style="stop-color:#6b705c;stop-opacity:1" />
      <stop offset="40%" style="stop-color:#a3b18a;stop-opacity:1" />
      <stop offset="60%" style="stop-color:#588157;stop-opacity:1" />
      <stop offset="80%" style="stop-color:#3a5a40;stop-opacity:1" />
      <stop offset="100%" style="stop-color:#344e41;stop-opacity:1" />
    </linearGradient>
  </defs>
  
  <!-- Elevation contours -->
  <g fill="none" stroke-width="1.5">
    <!-- Mountain 1 -->
    <path d="M50,350 C100,340 150,300 170,250 C190,200 210,220 230,190 C250,160 270,150 300,160 C330,170 360,190 370,230 C380,270 390,300 450,330 C420,350 380,370 330,380 C280,390 200,380 150,370 C100,360 70,360 50,350 Z" stroke="#344e41" />
    
    <path d="M70,340 C110,330 155,290 175,240 C195,190 215,210 235,180 C255,150 275,140 305,150 C335,160 365,180 375,220 C385,260 395,290 430,320 C400,340 370,360 320,370 C270,380 200,370 150,360 C100,350 90,350 70,340 Z" stroke="#3a5a40" />
    
    <path d="M90,330 C120,320 160,280 180,230 C200,180 220,200 240,170 C260,140 280,130 310,140 C340,150 370,170 380,210 C390,250 400,280 410,310 C380,330 360,350 310,360 C260,370 200,360 150,350 C110,340 110,340 90,330 Z" stroke="#588157" />
    
    <path d="M110,320 C130,310 165,270 185,220 C205,170 225,190 245,160 C265,130 285,120 315,130 C345,140 375,160 385,200 C395,240 405,270 390,300 C360,320 350,340 300,350 C250,360 200,350 150,340 C120,330 130,330 110,320 Z" stroke="#a3b18a" />
    
    <path d="M130,310 C140,300 170,260 190,210 C210,160 230,180 250,150 C270,120 290,110 320,120 C350,130 380,150 390,190 C400,230 410,260 370,290 C340,310 330,330 290,340 C240,350 200,340 150,330 C130,320 150,320 130,310 Z" stroke="#6b705c" />
    
    <path d="M150,300 C150,290 175,250 195,200 C215,150 235,170 255,140 C275,110 295,100 325,110 C355,120 385,140 395,180 C405,220 415,250 350,280 C320,300 320,320 280,330 C230,340 200,330 150,320 C140,310 170,310 150,300 Z" stroke="#483c32" />
    
    <!-- Mountain 2 -->
    <ellipse cx="120" cy="120" rx="70" ry="50" stroke="#344e41" />
    <ellipse cx="120" cy="120" rx="60" ry="40" stroke="#3a5a40" />
    <ellipse cx="120" cy="120" rx="50" ry="30" stroke="#588157" />
    <ellipse cx="120" cy="120" rx="40" ry="25" stroke="#a3b18a" />
    <ellipse cx="120" cy="120" rx="30" ry="20" stroke="#6b705c" />
    <ellipse cx="120" cy="120" rx="20" ry="15" stroke="#483c32" />
    <ellipse cx="120" cy="120" rx="10" ry="8" stroke="#344e41" />
    
    <!-- Mountain 3 -->
    <ellipse cx="380" cy="100" rx="60" ry="50" stroke="#344e41" />
    <ellipse cx="380" cy="100" rx="50" ry="40" stroke="#3a5a40" />
    <ellipse cx="380" cy="100" rx="40" ry="30" stroke="#588157" />
    <ellipse cx="380" cy="100" rx="30" ry="20" stroke="#a3b18a" />
    <ellipse cx="380" cy="100" rx="20" ry="15" stroke="#6b705c" />
    <ellipse cx="380" cy="100" rx="10" ry="8" stroke="#483c32" />
  </g>
  
  <!-- Elevation markers -->
  <g fill="#344e41" font-family="Arial" font-size="10">
    <text x="120" y="120">1250m</text>
    <text x="380" y="100">980m</text>
    <text x="250" y="200">820m</text>
    <text x="350" y="280">650m</text>
    <text x="150" y="350">420m</text>
    <text x="70" y="400">250m</text>
  </g>
  
  <!-- Rivers -->
  <path d="M120,120 C130,150 140,170 150,200 C160,230 180,250 190,280 C200,310 210,330 220,350 C230,370 240,390 250,420" fill="none" stroke="#219ebc" stroke-width="2" />
  
  <path d="M380,100 C370,120 360,140 350,160 C340,180 335,200 330,220 C325,240 320,260 330,280 C340,300 350,320 340,340 C330,360 310,380 300,400" fill="none" stroke="#219ebc" stroke-width="2" />
  
  <!-- Trees -->
  <g fill="#588157">
    <circle cx="100" cy="200" r="5" />
    <circle cx="110" cy="220" r="4" />
    <circle cx="90" cy="210" r="6" />
    <circle cx="105" cy="195" r="3" />
    <circle cx="85" cy="190" r="4" />
    
    <circle cx="300" cy="120" r="5" />
    <circle cx="310" cy="130" r="4" />
    <circle cx="290" cy="125" r="6" />
    <circle cx="305" cy="110" r="3" />
    <circle cx="295" cy="105" r="4" />
    
    <circle cx="400" cy="200" r="5" />
    <circle cx="410" cy="210" r="4" />
    <circle cx="390" cy="215" r="6" />
    <circle cx="405" cy="195" r="3" />
    <circle cx="395" cy="190" r="4" />
  </g>
  
  <!-- Compass -->
  <circle cx="450" cy="450" r="30" fill="white" stroke="#344e41" stroke-width="1" />
  <path d="M450,420 L450,480 M420,450 L480,450" stroke="#344e41" stroke-width="1" />
  <text x="452" y="440" font-family="Arial" font-size="12" fill="#344e41">N</text>
  <text x="452" y="465" font-family="Arial" font-size="12" fill="#344e41">S</text>
  <text x="435" y="453" font-family="Arial" font-size="12" fill="#344e41">W</text>
  <text x="460" y="453" font-family="Arial" font-size="12" fill="#344e41">E</text>
</svg> 