<svg width="500" height="500" xmlns="http://www.w3.org/2000/svg">
  <!-- Background gradient -->
  <defs>
    <linearGradient id="bgGradient" x1="0%" y1="0%" x2="100%" y2="100%">
      <stop offset="0%" stop-color="#000033" />
      <stop offset="100%" stop-color="#110022" />
    </linearGradient>
    
    <!-- Crystal gradients -->
    <linearGradient id="crystal1" x1="0%" y1="0%" x2="100%" y2="100%">
      <stop offset="0%" stop-color="#7b00ff" stop-opacity="0.8" />
      <stop offset="50%" stop-color="#cc00ff" stop-opacity="0.6" />
      <stop offset="100%" stop-color="#ff00cc" stop-opacity="0.8" />
    </linearGradient>
    
    <linearGradient id="crystal2" x1="0%" y1="0%" x2="100%" y2="100%">
      <stop offset="0%" stop-color="#0066ff" stop-opacity="0.8" />
      <stop offset="50%" stop-color="#00ccff" stop-opacity="0.6" />
      <stop offset="100%" stop-color="#00ffee" stop-opacity="0.8" />
    </linearGradient>
    
    <linearGradient id="crystal3" x1="0%" y1="0%" x2="100%" y2="100%">
      <stop offset="0%" stop-color="#ff3300" stop-opacity="0.8" />
      <stop offset="50%" stop-color="#ff6600" stop-opacity="0.6" />
      <stop offset="100%" stop-color="#ffcc00" stop-opacity="0.8" />
    </linearGradient>
    
    <!-- Lighting effects -->
    <filter id="glow" x="-20%" y="-20%" width="140%" height="140%">
      <feGaussianBlur stdDeviation="5" result="blur" />
      <feComposite in="SourceGraphic" in2="blur" operator="over" />
    </filter>
  </defs>
  
  <!-- Background -->
  <rect width="500" height="500" fill="url(#bgGradient)" />
  
  <!-- Stars in background -->
  <g fill="#ffffff">
    <circle cx="50" cy="50" r="1" opacity="0.7" />
    <circle cx="120" cy="80" r="0.8" opacity="0.5" />
    <circle cx="200" cy="30" r="1.2" opacity="0.8" />
    <circle cx="280" cy="60" r="0.6" opacity="0.6" />
    <circle cx="350" cy="40" r="1" opacity="0.7" />
    <circle cx="430" cy="70" r="0.8" opacity="0.5" />
    <circle cx="90" cy="130" r="1.2" opacity="0.8" />
    <circle cx="170" cy="160" r="0.6" opacity="0.6" />
    <circle cx="250" cy="140" r="1" opacity="0.7" />
    <circle cx="330" cy="170" r="0.8" opacity="0.5" />
    <circle cx="410" cy="120" r="1.2" opacity="0.8" />
    <circle cx="40" cy="210" r="0.6" opacity="0.6" />
    <circle cx="120" cy="240" r="1" opacity="0.7" />
    <circle cx="200" cy="190" r="0.8" opacity="0.5" />
    <circle cx="280" cy="220" r="1.2" opacity="0.8" />
    <circle cx="360" cy="250" r="0.6" opacity="0.6" />
    <circle cx="440" cy="230" r="1" opacity="0.7" />
    <circle cx="70" cy="310" r="0.8" opacity="0.5" />
    <circle cx="150" cy="280" r="1.2" opacity="0.8" />
    <circle cx="230" cy="330" r="0.6" opacity="0.6" />
    <circle cx="310" cy="290" r="1" opacity="0.7" />
    <circle cx="390" cy="320" r="0.8" opacity="0.5" />
    <circle cx="30" cy="370" r="1.2" opacity="0.8" />
    <circle cx="110" cy="400" r="0.6" opacity="0.6" />
    <circle cx="190" cy="380" r="1" opacity="0.7" />
    <circle cx="270" cy="410" r="0.8" opacity="0.5" />
    <circle cx="350" cy="370" r="1.2" opacity="0.8" />
    <circle cx="430" cy="400" r="0.6" opacity="0.6" />
    <circle cx="80" cy="460" r="1" opacity="0.7" />
    <circle cx="160" cy="430" r="0.8" opacity="0.5" />
    <circle cx="240" cy="470" r="1.2" opacity="0.8" />
    <circle cx="320" cy="440" r="0.6" opacity="0.6" />
    <circle cx="400" cy="470" r="1" opacity="0.7" />
    <circle cx="470" cy="430" r="0.8" opacity="0.5" />
  </g>
  
  <!-- Central crystal formation -->
  <g transform="translate(250, 250)">
    <!-- Main crystal cluster -->
    <!-- Purple crystal -->
    <g filter="url(#glow)" opacity="0.9">
      <path d="M0,-20 L-60,-80 L-100,-40 L-60,20 Z" fill="url(#crystal1)" stroke="#aa00ff" stroke-width="1" />
      <path d="M0,-20 L60,-80 L100,-40 L60,20 Z" fill="url(#crystal1)" stroke="#aa00ff" stroke-width="1" />
      
      <!-- Blue crystal -->
      <path d="M-60,20 L-100,-40 L-140,0 L-120,80 L-60,100 Z" fill="url(#crystal2)" stroke="#0099ff" stroke-width="1" />
      <path d="M60,20 L100,-40 L140,0 L120,80 L60,100 Z" fill="url(#crystal2)" stroke="#0099ff" stroke-width="1" />
      
      <!-- Orange crystal -->
      <path d="M-60,100 L-120,80 L-80,140 L0,160 Z" fill="url(#crystal3)" stroke="#ff6600" stroke-width="1" />
      <path d="M60,100 L120,80 L80,140 L0,160 Z" fill="url(#crystal3)" stroke="#ff6600" stroke-width="1" />
      
      <!-- Center connecting piece -->
      <path d="M0,-20 L-60,20 L-60,100 L0,160 L60,100 L60,20 Z" fill="url(#crystal1)" stroke="#aa00ff" stroke-width="1" opacity="0.8" />
    </g>
    
    <!-- Highlight reflections on crystals -->
    <path d="M-30,-50 L-20,-30 L-10,-40 Z" fill="#ffffff" opacity="0.7" />
    <path d="M30,-50 L20,-30 L10,-40 Z" fill="#ffffff" opacity="0.7" />
    <path d="M-100,0 L-90,10 L-80,0 Z" fill="#ffffff" opacity="0.6" />
    <path d="M100,0 L90,10 L80,0 Z" fill="#ffffff" opacity="0.6" />
    <path d="M-90,120 L-70,110 L-80,100 Z" fill="#ffffff" opacity="0.5" />
    <path d="M90,120 L70,110 L80,100 Z" fill="#ffffff" opacity="0.5" />
    
    <!-- Small floating crystal fragments -->
    <g opacity="0.8">
      <path d="M-150,-90 L-170,-110 L-180,-80 L-160,-70 Z" fill="url(#crystal2)" stroke="#0099ff" stroke-width="0.5" />
      <path d="M150,-90 L170,-110 L180,-80 L160,-70 Z" fill="url(#crystal2)" stroke="#0099ff" stroke-width="0.5" />
      <path d="M-150,90 L-170,110 L-180,80 L-160,70 Z" fill="url(#crystal3)" stroke="#ff6600" stroke-width="0.5" />
      <path d="M150,90 L170,110 L180,80 L160,70 Z" fill="url(#crystal3)" stroke="#ff6600" stroke-width="0.5" />
      
      <path d="M-30,-150 L-50,-170 L-60,-140 L-40,-130 Z" fill="url(#crystal1)" stroke="#aa00ff" stroke-width="0.5" />
      <path d="M30,-150 L50,-170 L60,-140 L40,-130 Z" fill="url(#crystal1)" stroke="#aa00ff" stroke-width="0.5" />
      <path d="M-30,150 L-50,170 L-60,140 L-40,130 Z" fill="url(#crystal1)" stroke="#aa00ff" stroke-width="0.5" />
      <path d="M30,150 L50,170 L60,140 L40,130 Z" fill="url(#crystal1)" stroke="#aa00ff" stroke-width="0.5" />
    </g>
  </g>
  
  <!-- Energy rays emanating from crystals -->
  <g stroke-width="1" opacity="0.3">
    <line x1="250" y1="250" x2="100" y2="50" stroke="#ff00ff" />
    <line x1="250" y1="250" x2="400" y2="50" stroke="#ff00ff" />
    <line x1="250" y1="250" x2="50" y2="200" stroke="#00ffff" />
    <line x1="250" y1="250" x2="450" y2="200" stroke="#00ffff" />
    <line x1="250" y1="250" x2="100" y2="450" stroke="#ffaa00" />
    <line x1="250" y1="250" x2="400" y2="450" stroke="#ffaa00" />
  </g>
  
  <!-- Outer circle glow -->
  <circle cx="250" cy="250" r="220" fill="none" stroke="#7700aa" stroke-width="1" opacity="0.2" />
  <circle cx="250" cy="250" r="230" fill="none" stroke="#7700aa" stroke-width="0.8" opacity="0.15" />
  <circle cx="250" cy="250" r="240" fill="none" stroke="#7700aa" stroke-width="0.5" opacity="0.1" />
</svg> 