<svg width="500" height="500" xmlns="http://www.w3.org/2000/svg">
  <!-- Background -->
  <rect width="500" height="500" fill="#02064d" />
  
  <!-- Gradient definitions -->
  <defs>
    <linearGradient id="wave1" x1="0%" y1="0%" x2="100%" y2="0%">
      <stop offset="0%" stop-color="#0066ff" stop-opacity="0.8" />
      <stop offset="50%" stop-color="#00ccff" stop-opacity="0.6" />
      <stop offset="100%" stop-color="#0066ff" stop-opacity="0.8" />
    </linearGradient>
    
    <linearGradient id="wave2" x1="0%" y1="0%" x2="100%" y2="0%">
      <stop offset="0%" stop-color="#6600ff" stop-opacity="0.8" />
      <stop offset="50%" stop-color="#9900ff" stop-opacity="0.6" />
      <stop offset="100%" stop-color="#6600ff" stop-opacity="0.8" />
    </linearGradient>
    
    <linearGradient id="wave3" x1="0%" y1="0%" x2="100%" y2="0%">
      <stop offset="0%" stop-color="#cc00ff" stop-opacity="0.8" />
      <stop offset="50%" stop-color="#ff00cc" stop-opacity="0.6" />
      <stop offset="100%" stop-color="#cc00ff" stop-opacity="0.8" />
    </linearGradient>
    
    <linearGradient id="wave4" x1="0%" y1="0%" x2="100%" y2="0%">
      <stop offset="0%" stop-color="#ff3366" stop-opacity="0.8" />
      <stop offset="50%" stop-color="#ff6699" stop-opacity="0.6" />
      <stop offset="100%" stop-color="#ff3366" stop-opacity="0.8" />
    </linearGradient>
    
    <linearGradient id="wave5" x1="0%" y1="0%" x2="100%" y2="0%">
      <stop offset="0%" stop-color="#ffcc00" stop-opacity="0.8" />
      <stop offset="50%" stop-color="#ffee33" stop-opacity="0.6" />
      <stop offset="100%" stop-color="#ffcc00" stop-opacity="0.8" />
    </linearGradient>
    
    <filter id="blur" x="-5%" y="-5%" width="110%" height="110%">
      <feGaussianBlur in="SourceGraphic" stdDeviation="3" />
    </filter>
  </defs>
  
  <!-- Wave patterns -->
  <!-- First set of waves (blue) -->
  <g opacity="0.7">
    <path d="M0,100 C50,80 100,120 150,100 S250,80 300,100 S400,120 450,100 S550,80 600,100" 
          fill="none" stroke="url(#wave1)" stroke-width="8" />
    
    <path d="M0,130 C50,110 100,150 150,130 S250,110 300,130 S400,150 450,130 S550,110 600,130" 
          fill="none" stroke="url(#wave1)" stroke-width="7" />
    
    <path d="M0,160 C50,140 100,180 150,160 S250,140 300,160 S400,180 450,160 S550,140 600,160" 
          fill="none" stroke="url(#wave1)" stroke-width="6" />
  </g>
  
  <!-- Second set of waves (purple) -->
  <g opacity="0.7">
    <path d="M0,200 C75,180 150,220 225,200 S375,180 450,200 S600,220 675,200" 
          fill="none" stroke="url(#wave2)" stroke-width="8" />
    
    <path d="M0,230 C75,210 150,250 225,230 S375,210 450,230 S600,250 675,230" 
          fill="none" stroke="url(#wave2)" stroke-width="7" />
    
    <path d="M0,260 C75,240 150,280 225,260 S375,240 450,260 S600,280 675,260" 
          fill="none" stroke="url(#wave2)" stroke-width="6" />
  </g>
  
  <!-- Third set of waves (magenta) -->
  <g opacity="0.7">
    <path d="M0,300 C60,330 120,270 180,300 S300,330 360,300 S480,270 540,300" 
          fill="none" stroke="url(#wave3)" stroke-width="8" />
    
    <path d="M0,330 C60,360 120,300 180,330 S300,360 360,330 S480,300 540,330" 
          fill="none" stroke="url(#wave3)" stroke-width="7" />
    
    <path d="M0,360 C60,390 120,330 180,360 S300,390 360,360 S480,330 540,360" 
          fill="none" stroke="url(#wave3)" stroke-width="6" />
  </g>
  
  <!-- Fourth set of waves (pink) -->
  <g opacity="0.7">
    <path d="M0,400 C40,430 80,370 120,400 S200,430 240,400 S320,370 360,400 S440,430 480,400" 
          fill="none" stroke="url(#wave4)" stroke-width="8" />
    
    <path d="M0,430 C40,460 80,400 120,430 S200,460 240,430 S320,400 360,430 S440,460 480,430" 
          fill="none" stroke="url(#wave4)" stroke-width="7" />
  </g>
  
  <!-- Fifth set of waves (yellow/gold) -->
  <g opacity="0.7">
    <path d="M0,50 C100,20 200,80 300,50 S500,20 600,50" 
          fill="none" stroke="url(#wave5)" stroke-width="6" />
    
    <path d="M0,20 C100,-10 200,50 300,20 S500,-10 600,20" 
          fill="none" stroke="url(#wave5)" stroke-width="4" />
  </g>
  
  <!-- Intersecting vertical waves -->
  <g opacity="0.5">
    <path d="M100,0 C80,50 120,100 100,150 S80,250 100,300 S120,400 100,450 S80,550 100,600" 
          fill="none" stroke="#00ffff" stroke-width="4" />
    
    <path d="M200,0 C180,75 220,150 200,225 S180,375 200,450 S220,600 200,675" 
          fill="none" stroke="#9966ff" stroke-width="4" />
    
    <path d="M300,0 C330,60 270,120 300,180 S330,300 300,360 S270,480 300,540" 
          fill="none" stroke="#ff66cc" stroke-width="4" />
    
    <path d="M400,0 C430,40 370,80 400,120 S430,200 400,240 S370,320 400,360 S430,440 400,480" 
          fill="none" stroke="#ffcc33" stroke-width="4" />
  </g>
  
  <!-- Highlighting intersections with circular nodes -->
  <g>
    <circle cx="100" cy="100" r="4" fill="#ffffff" />
    <circle cx="100" cy="300" r="4" fill="#ffffff" />
    <circle cx="200" cy="200" r="4" fill="#ffffff" />
    <circle cx="200" cy="400" r="4" fill="#ffffff" />
    <circle cx="300" cy="100" r="4" fill="#ffffff" />
    <circle cx="300" cy="300" r="4" fill="#ffffff" />
    <circle cx="400" cy="200" r="4" fill="#ffffff" />
    <circle cx="400" cy="400" r="4" fill="#ffffff" />
  </g>
  
  <!-- Glow effect for intersections -->
  <g filter="url(#blur)" opacity="0.5">
    <circle cx="100" cy="100" r="10" fill="#00ffff" />
    <circle cx="100" cy="300" r="10" fill="#00ffff" />
    <circle cx="200" cy="200" r="10" fill="#9966ff" />
    <circle cx="200" cy="400" r="10" fill="#9966ff" />
    <circle cx="300" cy="100" r="10" fill="#ff66cc" />
    <circle cx="300" cy="300" r="10" fill="#ff66cc" />
    <circle cx="400" cy="200" r="10" fill="#ffcc33" />
    <circle cx="400" cy="400" r="10" fill="#ffcc33" />
  </g>
  
  <!-- Particles scattered throughout for additional texture -->
  <g>
    <circle cx="50" cy="50" r="1" fill="#ffffff" opacity="0.8" />
    <circle cx="150" cy="75" r="1.2" fill="#ffffff" opacity="0.7" />
    <circle cx="250" cy="25" r="0.8" fill="#ffffff" opacity="0.9" />
    <circle cx="350" cy="60" r="1.3" fill="#ffffff" opacity="0.7" />
    <circle cx="450" cy="40" r="1" fill="#ffffff" opacity="0.8" />
    
    <circle cx="75" cy="150" r="0.9" fill="#ffffff" opacity="0.7" />
    <circle cx="125" cy="250" r="1.4" fill="#ffffff" opacity="0.8" />
    <circle cx="225" cy="150" r="0.7" fill="#ffffff" opacity="0.9" />
    <circle cx="325" cy="250" r="1.1" fill="#ffffff" opacity="0.7" />
    <circle cx="425" cy="150" r="0.8" fill="#ffffff" opacity="0.8" />
    
    <circle cx="50" cy="350" r="1.2" fill="#ffffff" opacity="0.7" />
    <circle cx="150" cy="450" r="0.9" fill="#ffffff" opacity="0.8" />
    <circle cx="250" cy="350" r="1.3" fill="#ffffff" opacity="0.7" />
    <circle cx="350" cy="450" r="0.7" fill="#ffffff" opacity="0.9" />
    <circle cx="450" cy="350" r="1" fill="#ffffff" opacity="0.8" />
  </g>
  
  <!-- Central focus point with radiating glow -->
  <circle cx="250" cy="250" r="15" fill="none" stroke="#ffffff" stroke-width="1" opacity="0.5" />
  <circle cx="250" cy="250" r="10" fill="none" stroke="#ffffff" stroke-width="2" opacity="0.7" />
  <circle cx="250" cy="250" r="5" fill="#ffffff" opacity="0.9" />
</svg> 