<svg width="500" height="500" xmlns="http://www.w3.org/2000/svg">
  <!-- Background -->
  <rect width="500" height="500" fill="#000011" />
  
  <!-- Gradient definitions -->
  <defs>
    <linearGradient id="waveGradient1" x1="0%" y1="0%" x2="0%" y2="100%">
      <stop offset="0%" stop-color="#0066ff" stop-opacity="0.8" />
      <stop offset="100%" stop-color="#00ccff" stop-opacity="0.2" />
    </linearGradient>
    
    <linearGradient id="waveGradient2" x1="0%" y1="0%" x2="0%" y2="100%">
      <stop offset="0%" stop-color="#6600ff" stop-opacity="0.8" />
      <stop offset="100%" stop-color="#9900ff" stop-opacity="0.2" />
    </linearGradient>
    
    <linearGradient id="waveGradient3" x1="0%" y1="0%" x2="0%" y2="100%">
      <stop offset="0%" stop-color="#ff0066" stop-opacity="0.8" />
      <stop offset="100%" stop-color="#ff0099" stop-opacity="0.2" />
    </linearGradient>
    
    <linearGradient id="barGradient" x1="0%" y1="0%" x2="0%" y2="100%">
      <stop offset="0%" stop-color="#00ffcc" />
      <stop offset="100%" stop-color="#0066ff" />
    </linearGradient>
    
    <!-- Glow effects -->
    <filter id="glow" x="-20%" y="-20%" width="140%" height="140%">
      <feGaussianBlur stdDeviation="3" result="blur" />
      <feComposite in="SourceGraphic" in2="blur" operator="over" />
    </filter>
  </defs>
  
  <!-- Grid lines -->
  <g stroke="#001133" stroke-width="1" opacity="0.5">
    <!-- Horizontal grid lines -->
    <line x1="0" y1="50" x2="500" y2="50" />
    <line x1="0" y1="100" x2="500" y2="100" />
    <line x1="0" y1="150" x2="500" y2="150" />
    <line x1="0" y1="200" x2="500" y2="200" />
    <line x1="0" y1="250" x2="500" y2="250" />
    <line x1="0" y1="300" x2="500" y2="300" />
    <line x1="0" y1="350" x2="500" y2="350" />
    <line x1="0" y1="400" x2="500" y2="400" />
    <line x1="0" y1="450" x2="500" y2="450" />
    
    <!-- Vertical grid lines -->
    <line x1="50" y1="0" x2="50" y2="500" />
    <line x1="100" y1="0" x2="100" y2="500" />
    <line x1="150" y1="0" x2="150" y2="500" />
    <line x1="200" y1="0" x2="200" y2="500" />
    <line x1="250" y1="0" x2="250" y2="500" />
    <line x1="300" y1="0" x2="300" y2="500" />
    <line x1="350" y1="0" x2="350" y2="500" />
    <line x1="400" y1="0" x2="400" y2="500" />
    <line x1="450" y1="0" x2="450" y2="500" />
  </g>
  
  <!-- Main waveform -->
  <g transform="translate(0, 250)">
    <!-- First waveform -->
    <path d="M0,0 
             C10,-50 20,-70 30,-30 
             C40,10 50,40 60,20 
             C70,0 80,-60 90,-50 
             C100,-40 110,10 120,30 
             C130,50 140,40 150,10 
             C160,-20 170,-40 180,-30 
             C190,-20 200,0 210,20 
             C220,40 230,30 240,0 
             C250,-30 260,-40 270,-20 
             C280,0 290,40 300,20 
             C310,0 320,-20 330,-40 
             C340,-60 350,-50 360,-30 
             C370,-10 380,20 390,10 
             C400,0 410,-20 420,-40 
             C430,-60 440,-40 450,-20 
             C460,0 470,50 480,30 
             C490,10 500,0 510,0"
          fill="none" stroke="url(#waveGradient1)" stroke-width="3" />
    
    <!-- Second waveform (offset) -->
    <path d="M0,20 
             C10,-30 20,-50 30,-10 
             C40,30 50,60 60,40 
             C70,20 80,-40 90,-30 
             C100,-20 110,30 120,50 
             C130,70 140,60 150,30 
             C160,0 170,-20 180,-10 
             C190,0 200,20 210,40 
             C220,60 230,50 240,20 
             C250,-10 260,-20 270,0 
             C280,20 290,60 300,40 
             C310,20 320,0 330,-20 
             C340,-40 350,-30 360,-10 
             C370,10 380,40 390,30 
             C400,20 410,0 420,-20 
             C430,-40 440,-20 450,0 
             C460,20 470,70 480,50 
             C490,30 500,20 510,20"
          fill="none" stroke="url(#waveGradient2)" stroke-width="3" opacity="0.6" />
    
    <!-- Third waveform (offset in opposite direction) -->
    <path d="M0,-20 
             C10,-70 20,-90 30,-50 
             C40,-10 50,20 60,0 
             C70,-20 80,-80 90,-70 
             C100,-60 110,-10 120,10 
             C130,30 140,20 150,-10 
             C160,-40 170,-60 180,-50 
             C190,-40 200,-20 210,0 
             C220,20 230,10 240,-20 
             C250,-50 260,-60 270,-40 
             C280,-20 290,20 300,0 
             C310,-20 320,-40 330,-60 
             C340,-80 350,-70 360,-50 
             C370,-30 380,0 390,-10 
             C400,-20 410,-40 420,-60 
             C430,-80 440,-60 450,-40 
             C460,-20 470,30 480,10 
             C490,-10 500,-20 510,-20"
          fill="none" stroke="url(#waveGradient3)" stroke-width="3" opacity="0.4" />
    
    <!-- Central line indicator -->
    <line x1="0" y1="0" x2="500" y2="0" stroke="#00aaff" stroke-width="1" opacity="0.7" />
  </g>
  
  <!-- Frequency bars at bottom -->
  <g transform="translate(0, 400)">
    <!-- Frequency visualization bars -->
    <rect x="10" y="-20" width="5" height="20" fill="url(#barGradient)" />
    <rect x="20" y="-50" width="5" height="50" fill="url(#barGradient)" />
    <rect x="30" y="-35" width="5" height="35" fill="url(#barGradient)" />
    <rect x="40" y="-15" width="5" height="15" fill="url(#barGradient)" />
    <rect x="50" y="-40" width="5" height="40" fill="url(#barGradient)" />
    <rect x="60" y="-70" width="5" height="70" fill="url(#barGradient)" />
    <rect x="70" y="-55" width="5" height="55" fill="url(#barGradient)" />
    <rect x="80" y="-25" width="5" height="25" fill="url(#barGradient)" />
    <rect x="90" y="-45" width="5" height="45" fill="url(#barGradient)" />
    <rect x="100" y="-65" width="5" height="65" fill="url(#barGradient)" />
    <rect x="110" y="-30" width="5" height="30" fill="url(#barGradient)" />
    <rect x="120" y="-20" width="5" height="20" fill="url(#barGradient)" />
    <rect x="130" y="-50" width="5" height="50" fill="url(#barGradient)" />
    <rect x="140" y="-80" width="5" height="80" fill="url(#barGradient)" />
    <rect x="150" y="-60" width="5" height="60" fill="url(#barGradient)" />
    <rect x="160" y="-30" width="5" height="30" fill="url(#barGradient)" />
    <rect x="170" y="-40" width="5" height="40" fill="url(#barGradient)" />
    <rect x="180" y="-55" width="5" height="55" fill="url(#barGradient)" />
    <rect x="190" y="-75" width="5" height="75" fill="url(#barGradient)" />
    <rect x="200" y="-65" width="5" height="65" fill="url(#barGradient)" />
    <rect x="210" y="-35" width="5" height="35" fill="url(#barGradient)" />
    <rect x="220" y="-25" width="5" height="25" fill="url(#barGradient)" />
    <rect x="230" y="-50" width="5" height="50" fill="url(#barGradient)" />
    <rect x="240" y="-85" width="5" height="85" fill="url(#barGradient)" />
    <rect x="250" y="-90" width="5" height="90" fill="url(#barGradient)" />
    <rect x="260" y="-70" width="5" height="70" fill="url(#barGradient)" />
    <rect x="270" y="-40" width="5" height="40" fill="url(#barGradient)" />
    <rect x="280" y="-30" width="5" height="30" fill="url(#barGradient)" />
    <rect x="290" y="-60" width="5" height="60" fill="url(#barGradient)" />
    <rect x="300" y="-80" width="5" height="80" fill="url(#barGradient)" />
    <rect x="310" y="-40" width="5" height="40" fill="url(#barGradient)" />
    <rect x="320" y="-20" width="5" height="20" fill="url(#barGradient)" />
    <rect x="330" y="-45" width="5" height="45" fill="url(#barGradient)" />
    <rect x="340" y="-65" width="5" height="65" fill="url(#barGradient)" />
    <rect x="350" y="-50" width="5" height="50" fill="url(#barGradient)" />
    <rect x="360" y="-30" width="5" height="30" fill="url(#barGradient)" />
    <rect x="370" y="-40" width="5" height="40" fill="url(#barGradient)" />
    <rect x="380" y="-70" width="5" height="70" fill="url(#barGradient)" />
    <rect x="390" y="-55" width="5" height="55" fill="url(#barGradient)" />
    <rect x="400" y="-35" width="5" height="35" fill="url(#barGradient)" />
    <rect x="410" y="-25" width="5" height="25" fill="url(#barGradient)" />
    <rect x="420" y="-45" width="5" height="45" fill="url(#barGradient)" />
    <rect x="430" y="-60" width="5" height="60" fill="url(#barGradient)" />
    <rect x="440" y="-40" width="5" height="40" fill="url(#barGradient)" />
    <rect x="450" y="-25" width="5" height="25" fill="url(#barGradient)" />
    <rect x="460" y="-35" width="5" height="35" fill="url(#barGradient)" />
    <rect x="470" y="-55" width="5" height="55" fill="url(#barGradient)" />
    <rect x="480" y="-45" width="5" height="45" fill="url(#barGradient)" />
    <rect x="490" y="-20" width="5" height="20" fill="url(#barGradient)" />
  </g>
  
  <!-- Time markers and indicators -->
  <g fill="#aaccff" font-family="monospace" font-size="10">
    <text x="10" y="30">00:00</text>
    <text x="235" y="30">02:17</text>
    <text x="470" y="30">04:35</text>
  </g>
  
  <!-- Digital readouts and controls -->
  <g>
    <!-- Main display area -->
    <rect x="170" y="60" width="160" height="40" fill="#001133" stroke="#003366" stroke-width="1" />
    <text x="250" y="85" font-family="monospace" font-size="20" fill="#00ccff" text-anchor="middle">02:17.35</text>
    
    <!-- Control buttons -->
    <circle cx="200" y="130" r="15" fill="#002244" stroke="#004488" stroke-width="1" />
    <polygon points="195,123 195,137 210,130" fill="#00aaff" />
    
    <circle cx="250" y="130" r="15" fill="#002244" stroke="#004488" stroke-width="1" />
    <rect x="245" y="125" width="10" height="10" fill="#00aaff" />
    
    <circle cx="300" y="130" r="15" fill="#002244" stroke="#004488" stroke-width="1" />
    <rect x="293" y="125" width="4" height="10" fill="#00aaff" />
    <rect x="303" y="125" width="4" height="10" fill="#00aaff" />
  </g>
  
  <!-- Volume indicator -->
  <g transform="translate(400, 130)">
    <rect x="-30" y="-10" width="60" height="20" fill="#001133" stroke="#003366" stroke-width="1" />
    <rect x="-25" y="-5" width="40" height="10" fill="#0055aa" />
    <rect x="-25" y="-5" width="25" height="10" fill="#00aaff" />
  </g>
  
  <!-- Circular audio indicators with glow -->
  <g transform="translate(100, 350)" filter="url(#glow)">
    <circle cx="0" cy="0" r="30" fill="none" stroke="#00aaff" stroke-width="1" />
    <circle cx="0" cy="0" r="20" fill="none" stroke="#00aaff" stroke-width="1" />
    <circle cx="0" cy="0" r="10" fill="none" stroke="#00aaff" stroke-width="1" />
    <circle cx="0" cy="0" r="5" fill="#00aaff" />
    
    <!-- Animated pulse indicators -->
    <circle cx="0" cy="0" r="15" fill="none" stroke="#00aaff" stroke-width="1" opacity="0.7" />
    <circle cx="0" cy="0" r="25" fill="none" stroke="#00aaff" stroke-width="1" opacity="0.4" />
  </g>
  
  <g transform="translate(400, 350)" filter="url(#glow)">
    <circle cx="0" cy="0" r="30" fill="none" stroke="#ff00aa" stroke-width="1" />
    <circle cx="0" cy="0" r="20" fill="none" stroke="#ff00aa" stroke-width="1" />
    <circle cx="0" cy="0" r="10" fill="none" stroke="#ff00aa" stroke-width="1" />
    <circle cx="0" cy="0" r="5" fill="#ff00aa" />
    
    <!-- Animated pulse indicators -->
    <circle cx="0" cy="0" r="15" fill="none" stroke="#ff00aa" stroke-width="1" opacity="0.7" />
    <circle cx="0" cy="0" r="25" fill="none" stroke="#ff00aa" stroke-width="1" opacity="0.4" />
  </g>
  
  <!-- Audio level indicators -->
  <g transform="translate(20, 130)">
    <!-- Level meter left -->
    <rect x="0" y="0" width="100" height="10" fill="#001133" stroke="#003366" stroke-width="1" />
    <rect x="2" y="2" width="80" height="6" fill="#00aa55" />
    <rect x="82" y="2" width="10" height="6" fill="#ffcc00" />
    <rect x="92" y="2" width="6" height="6" fill="#ff3300" />
  </g>
  
  <g transform="translate(20, 150)">
    <!-- Level meter right -->
    <rect x="0" y="0" width="100" height="10" fill="#001133" stroke="#003366" stroke-width="1" />
    <rect x="2" y="2" width="90" height="6" fill="#00aa55" />
    <rect x="92" y="2" width="6" height="6" fill="#ffcc00" />
  </g>
  
  <!-- Small frequency dots -->
  <g fill="#0099cc" opacity="0.6">
    <circle cx="40" cy="280" r="2" />
    <circle cx="60" cy="290" r="1.5" />
    <circle cx="80" cy="270" r="2.5" />
    <circle cx="100" cy="260" r="2" />
    <circle cx="120" cy="280" r="1.5" />
    <circle cx="140" cy="270" r="2" />
    <circle cx="160" cy="250" r="2.5" />
    <circle cx="180" cy="260" r="1.5" />
    <circle cx="200" cy="280" r="2" />
    <circle cx="220" cy="270" r="1.5" />
    <circle cx="240" cy="250" r="2.5" />
    <circle cx="260" cy="240" r="2" />
    <circle cx="280" cy="260" r="1.5" />
    <circle cx="300" cy="270" r="2" />
    <circle cx="320" cy="280" r="2.5" />
    <circle cx="340" cy="260" r="1.5" />
    <circle cx="360" cy="250" r="2" />
    <circle cx="380" cy="270" r="1.5" />
    <circle cx="400" cy="280" r="2.5" />
    <circle cx="420" cy="260" r="2" />
    <circle cx="440" cy="250" r="1.5" />
    <circle cx="460" cy="270" r="2" />
  </g>
</svg> 