<svg width="500" height="500" xmlns="http://www.w3.org/2000/svg">
  <rect width="500" height="500" fill="#0b0033" />
  
  <defs>
    <!-- Gradients -->
    <linearGradient id="skyGradient" x1="0%" y1="0%" x2="0%" y2="100%">
      <stop offset="0%" style="stop-color:#0b0033;stop-opacity:1" />
      <stop offset="50%" style="stop-color:#2c0066;stop-opacity:1" />
      <stop offset="100%" style="stop-color:#6600cc;stop-opacity:1" />
    </linearGradient>
    
    <linearGradient id="dreamGradient1" x1="0%" y1="0%" x2="100%" y2="100%">
      <stop offset="0%" style="stop-color:#ff66cc;stop-opacity:1" />
      <stop offset="50%" style="stop-color:#cc33ff;stop-opacity:1" />
      <stop offset="100%" style="stop-color:#3366ff;stop-opacity:1" />
    </linearGradient>
    
    <linearGradient id="dreamGradient2" x1="100%" y1="0%" x2="0%" y2="100%">
      <stop offset="0%" style="stop-color:#ff9966;stop-opacity:1" />
      <stop offset="50%" style="stop-color:#ff6699;stop-opacity:1" />
      <stop offset="100%" style="stop-color:#cc66ff;stop-opacity:1" />
    </linearGradient>
    
    <radialGradient id="starGlow" cx="50%" cy="50%" r="50%" fx="50%" fy="50%">
      <stop offset="0%" style="stop-color:#ffffff;stop-opacity:1" />
      <stop offset="100%" style="stop-color:#ffffff;stop-opacity:0" />
    </radialGradient>
    
    <!-- Filters -->
    <filter id="softGlow" x="-50%" y="-50%" width="200%" height="200%">
      <feGaussianBlur stdDeviation="3" result="blur" />
      <feComposite in="SourceGraphic" in2="blur" operator="over" />
    </filter>
    
    <filter id="sharpGlow" x="-50%" y="-50%" width="200%" height="200%">
      <feGaussianBlur stdDeviation="1" result="blur" />
      <feComposite in="SourceGraphic" in2="blur" operator="over" />
    </filter>
  </defs>
  
  <!-- Dream background -->
  <rect width="500" height="500" fill="url(#skyGradient)" />
  
  <!-- Fractal elements -->
  <!-- Sierpinski gasket (triangle fractal) -->
  <g filter="url(#softGlow)">
    <!-- Level 1 - Main triangle -->
    <path d="M250,50 L450,400 L50,400 Z" fill="none" stroke="url(#dreamGradient1)" stroke-width="2" opacity="0.7" />
    
    <!-- Level 2 - Three inner triangles -->
    <path d="M250,50 L350,225 L150,225 Z" fill="none" stroke="url(#dreamGradient1)" stroke-width="1.5" opacity="0.7" />
    <path d="M150,225 L250,400 L50,400 Z" fill="none" stroke="url(#dreamGradient1)" stroke-width="1.5" opacity="0.7" />
    <path d="M350,225 L450,400 L250,400 Z" fill="none" stroke="url(#dreamGradient1)" stroke-width="1.5" opacity="0.7" />
    
    <!-- Level 3 - Nine inner triangles -->
    <!-- Top triangle subdivisions -->
    <path d="M250,50 L300,137.5 L200,137.5 Z" fill="none" stroke="url(#dreamGradient1)" stroke-width="1" opacity="0.6" />
    <path d="M200,137.5 L250,225 L150,225 Z" fill="none" stroke="url(#dreamGradient1)" stroke-width="1" opacity="0.6" />
    <path d="M300,137.5 L350,225 L250,225 Z" fill="none" stroke="url(#dreamGradient1)" stroke-width="1" opacity="0.6" />
    
    <!-- Bottom left triangle subdivisions -->
    <path d="M150,225 L200,312.5 L100,312.5 Z" fill="none" stroke="url(#dreamGradient1)" stroke-width="1" opacity="0.6" />
    <path d="M100,312.5 L150,400 L50,400 Z" fill="none" stroke="url(#dreamGradient1)" stroke-width="1" opacity="0.6" />
    <path d="M200,312.5 L250,400 L150,400 Z" fill="none" stroke="url(#dreamGradient1)" stroke-width="1" opacity="0.6" />
    
    <!-- Bottom right triangle subdivisions -->
    <path d="M350,225 L400,312.5 L300,312.5 Z" fill="none" stroke="url(#dreamGradient1)" stroke-width="1" opacity="0.6" />
    <path d="M300,312.5 L350,400 L250,400 Z" fill="none" stroke="url(#dreamGradient1)" stroke-width="1" opacity="0.6" />
    <path d="M400,312.5 L450,400 L350,400 Z" fill="none" stroke="url(#dreamGradient1)" stroke-width="1" opacity="0.6" />
  </g>
  
  <!-- Julia set inspired fractal (circular) -->
  <g transform="translate(250, 250)" filter="url(#softGlow)">
    <!-- Concentric circles with varying radii -->
    <circle cx="0" cy="0" r="150" fill="none" stroke="url(#dreamGradient2)" stroke-width="2" opacity="0.5" />
    <circle cx="0" cy="0" r="120" fill="none" stroke="url(#dreamGradient2)" stroke-width="1.8" opacity="0.5" />
    <circle cx="0" cy="0" r="90" fill="none" stroke="url(#dreamGradient2)" stroke-width="1.6" opacity="0.5" />
    <circle cx="0" cy="0" r="60" fill="none" stroke="url(#dreamGradient2)" stroke-width="1.4" opacity="0.5" />
    <circle cx="0" cy="0" r="30" fill="none" stroke="url(#dreamGradient2)" stroke-width="1.2" opacity="0.5" />
    
    <!-- Recursive bubble clusters -->
    <!-- Cluster 1 -->
    <g transform="translate(-90, 0)">
      <circle cx="0" cy="0" r="20" fill="none" stroke="url(#dreamGradient2)" stroke-width="1" opacity="0.6" />
      <circle cx="12" cy="0" r="8" fill="none" stroke="url(#dreamGradient2)" stroke-width="0.8" opacity="0.6" />
      <circle cx="-12" cy="0" r="8" fill="none" stroke="url(#dreamGradient2)" stroke-width="0.8" opacity="0.6" />
      <circle cx="0" cy="12" r="8" fill="none" stroke="url(#dreamGradient2)" stroke-width="0.8" opacity="0.6" />
      <circle cx="0" cy="-12" r="8" fill="none" stroke="url(#dreamGradient2)" stroke-width="0.8" opacity="0.6" />
    </g>
    
    <!-- Cluster 2 -->
    <g transform="translate(90, 0)">
      <circle cx="0" cy="0" r="20" fill="none" stroke="url(#dreamGradient2)" stroke-width="1" opacity="0.6" />
      <circle cx="12" cy="0" r="8" fill="none" stroke="url(#dreamGradient2)" stroke-width="0.8" opacity="0.6" />
      <circle cx="-12" cy="0" r="8" fill="none" stroke="url(#dreamGradient2)" stroke-width="0.8" opacity="0.6" />
      <circle cx="0" cy="12" r="8" fill="none" stroke="url(#dreamGradient2)" stroke-width="0.8" opacity="0.6" />
      <circle cx="0" cy="-12" r="8" fill="none" stroke="url(#dreamGradient2)" stroke-width="0.8" opacity="0.6" />
    </g>
    
    <!-- Cluster 3 -->
    <g transform="translate(0, 90)">
      <circle cx="0" cy="0" r="20" fill="none" stroke="url(#dreamGradient2)" stroke-width="1" opacity="0.6" />
      <circle cx="12" cy="0" r="8" fill="none" stroke="url(#dreamGradient2)" stroke-width="0.8" opacity="0.6" />
      <circle cx="-12" cy="0" r="8" fill="none" stroke="url(#dreamGradient2)" stroke-width="0.8" opacity="0.6" />
      <circle cx="0" cy="12" r="8" fill="none" stroke="url(#dreamGradient2)" stroke-width="0.8" opacity="0.6" />
      <circle cx="0" cy="-12" r="8" fill="none" stroke="url(#dreamGradient2)" stroke-width="0.8" opacity="0.6" />
    </g>
    
    <!-- Cluster 4 -->
    <g transform="translate(0, -90)">
      <circle cx="0" cy="0" r="20" fill="none" stroke="url(#dreamGradient2)" stroke-width="1" opacity="0.6" />
      <circle cx="12" cy="0" r="8" fill="none" stroke="url(#dreamGradient2)" stroke-width="0.8" opacity="0.6" />
      <circle cx="-12" cy="0" r="8" fill="none" stroke="url(#dreamGradient2)" stroke-width="0.8" opacity="0.6" />
      <circle cx="0" cy="12" r="8" fill="none" stroke="url(#dreamGradient2)" stroke-width="0.8" opacity="0.6" />
      <circle cx="0" cy="-12" r="8" fill="none" stroke="url(#dreamGradient2)" stroke-width="0.8" opacity="0.6" />
    </g>
  </g>
  
  <!-- Dragon curve fractal approximation -->
  <g transform="translate(100, 300) scale(0.6)" filter="url(#sharpGlow)">
    <path d="M0,0 L0,-20 L20,-20 L20,-40 L40,-40 L40,-20 L60,-20 L60,-40 L80,-40 L80,-60 L60,-60 L60,-80 
             L80,-80 L80,-100 L100,-100 L100,-80 L120,-80 L120,-100 L140,-100 L140,-80 L160,-80 L160,-60 
             L140,-60 L140,-40 L160,-40 L160,-20 L140,-20 L140,0 L120,0 L120,20 L100,20 L100,0 L80,0 L80,20 
             L60,20 L60,0 L40,0 L40,-20 L20,-20 L20,0 Z" 
          fill="none" stroke="url(#dreamGradient1)" stroke-width="2" opacity="0.7" />
  </g>
  
  <!-- Koch snowflake approximation -->
  <g transform="translate(400, 150) scale(0.4)" filter="url(#sharpGlow)">
    <!-- Level 1 -->
    <path d="M0,0 L60,0 L30,-52 Z" fill="none" stroke="url(#dreamGradient2)" stroke-width="2" opacity="0.7" />
    
    <!-- Level 2 -->
    <path d="M0,0 L20,0 L10,-17.3 Z" fill="none" stroke="url(#dreamGradient2)" stroke-width="1.5" opacity="0.7" />
    <path d="M20,0 L40,0 L30,-17.3 Z" fill="none" stroke="url(#dreamGradient2)" stroke-width="1.5" opacity="0.7" />
    <path d="M40,0 L60,0 L50,-17.3 Z" fill="none" stroke="url(#dreamGradient2)" stroke-width="1.5" opacity="0.7" />
    <path d="M10,-17.3 L30,-52 L20,-34.7 Z" fill="none" stroke="url(#dreamGradient2)" stroke-width="1.5" opacity="0.7" />
    <path d="M50,-17.3 L30,-52 L40,-34.7 Z" fill="none" stroke="url(#dreamGradient2)" stroke-width="1.5" opacity="0.7" />
  </g>
  
  <!-- Spiral fractal at bottom right -->
  <g transform="translate(420, 350)" filter="url(#softGlow)">
    <path d="M0,0 C-5,-5 -10,-8 -15,-8 C-20,-8 -25,-5 -25,0 C-25,5 -20,10 -15,10 
             C-8,10 0,5 0,0 C0,-8 -5,-15 -15,-15 C-25,-15 -35,-5 -35,5 
             C-35,15 -25,25 -10,25 C5,25 15,15 15,0 C15,-15 5,-30 -15,-30 
             C-35,-30 -50,-15 -50,5 C-50,25 -30,40 -5,40 C20,40 35,20 35,-5"
          fill="none" stroke="url(#dreamGradient1)" stroke-width="2" opacity="0.6" />
  </g>
  
  <!-- Dream particles -->
  <g filter="url(#softGlow)">
    <circle cx="120" cy="100" r="1.5" fill="#ffffff" opacity="0.8" />
    <circle cx="150" cy="200" r="2" fill="#ffffff" opacity="0.8" />
    <circle cx="200" cy="80" r="1" fill="#ffffff" opacity="0.8" />
    <circle cx="250" cy="150" r="2.5" fill="#ffffff" opacity="0.8" />
    <circle cx="300" cy="120" r="1.5" fill="#ffffff" opacity="0.8" />
    <circle cx="350" cy="180" r="1" fill="#ffffff" opacity="0.8" />
    <circle cx="380" cy="300" r="2" fill="#ffffff" opacity="0.8" />
    <circle cx="80" cy="320" r="1.5" fill="#ffffff" opacity="0.8" />
    <circle cx="150" cy="340" r="1" fill="#ffffff" opacity="0.8" />
    <circle cx="370" cy="80" r="2" fill="#ffffff" opacity="0.8" />
    <circle cx="430" cy="200" r="1.5" fill="#ffffff" opacity="0.8" />
    <circle cx="75" cy="250" r="1" fill="#ffffff" opacity="0.8" />
    <circle cx="320" cy="350" r="2" fill="#ffffff" opacity="0.8" />
    <circle cx="220" cy="330" r="1.5" fill="#ffffff" opacity="0.8" />
    <circle cx="180" cy="170" r="2" fill="#ffffff" opacity="0.8" />
    <circle cx="400" cy="120" r="1" fill="#ffffff" opacity="0.8" />
  </g>
  
  <!-- Glowing orb in center of Julia set fractal -->
  <circle cx="250" cy="250" r="20" fill="url(#starGlow)" opacity="0.6" />
  
  <!-- Small glowing orbs at fractal intersection points -->
  <circle cx="250" cy="50" r="5" fill="url(#starGlow)" opacity="0.8" />
  <circle cx="150" cy="225" r="4" fill="url(#starGlow)" opacity="0.7" />
  <circle cx="350" cy="225" r="4" fill="url(#starGlow)" opacity="0.7" />
  <circle cx="250" cy="400" r="5" fill="url(#starGlow)" opacity="0.8" />
  <circle cx="50" cy="400" r="4" fill="url(#starGlow)" opacity="0.7" />
  <circle cx="450" cy="400" r="4" fill="url(#starGlow)" opacity="0.7" />
</svg> 