<svg width="500" height="500" xmlns="http://www.w3.org/2000/svg">
  <rect width="500" height="500" fill="#09132d" />
  
  <defs>
    <!-- Gradients -->
    <linearGradient id="groundGradient" x1="0%" y1="0%" x2="0%" y2="100%">
      <stop offset="0%" style="stop-color:#143255;stop-opacity:1" />
      <stop offset="100%" style="stop-color:#091d38;stop-opacity:1" />
    </linearGradient>
    
    <linearGradient id="plantGradient1" x1="0%" y1="0%" x2="0%" y2="100%">
      <stop offset="0%" style="stop-color:#00ff99;stop-opacity:1" />
      <stop offset="100%" style="stop-color:#00cc66;stop-opacity:1" />
    </linearGradient>
    
    <linearGradient id="plantGradient2" x1="0%" y1="0%" x2="0%" y2="100%">
      <stop offset="0%" style="stop-color:#00ffcc;stop-opacity:1" />
      <stop offset="100%" style="stop-color:#00ccaa;stop-opacity:1" />
    </linearGradient>
    
    <linearGradient id="dataFlowGradient" x1="0%" y1="0%" x2="100%" y2="0%">
      <stop offset="0%" style="stop-color:#ff6600;stop-opacity:1" />
      <stop offset="100%" style="stop-color:#ff9900;stop-opacity:1" />
    </linearGradient>
    
    <linearGradient id="blobGradient1" x1="0%" y1="0%" x2="100%" y2="100%">
      <stop offset="0%" style="stop-color:#3366ff;stop-opacity:1" />
      <stop offset="100%" style="stop-color:#00ccff;stop-opacity:1" />
    </linearGradient>
    
    <linearGradient id="blobGradient2" x1="0%" y1="0%" x2="100%" y2="100%">
      <stop offset="0%" style="stop-color:#cc33ff;stop-opacity:1" />
      <stop offset="100%" style="stop-color:#ff66ff;stop-opacity:1" />
    </linearGradient>
    
    <linearGradient id="blobGradient3" x1="0%" y1="0%" x2="100%" y2="100%">
      <stop offset="0%" style="stop-color:#ffcc00;stop-opacity:1" />
      <stop offset="100%" style="stop-color:#ff9900;stop-opacity:1" />
    </linearGradient>
    
    <!-- Filters -->
    <filter id="glow" x="-50%" y="-50%" width="200%" height="200%">
      <feGaussianBlur stdDeviation="2" result="blur" />
      <feComposite in="SourceGraphic" in2="blur" operator="over" />
    </filter>
    
    <filter id="cellShadow" x="-50%" y="-50%" width="200%" height="200%">
      <feGaussianBlur stdDeviation="1.5" result="blur" />
      <feComposite in="SourceGraphic" in2="blur" operator="over" />
    </filter>
  </defs>
  
  <!-- Background -->
  <rect width="500" height="500" fill="#09132d" />
  
  <!-- Digital ground -->
  <path d="M0,350 C50,330 100,360 150,340 C200,320 250,350 300,330 C350,310 400,340 450,320 C500,300 550,330 600,310 L600,500 L0,500 Z" 
        fill="url(#groundGradient)" />
  
  <!-- Data flow river -->
  <path d="M0,400 C50,390 100,410 150,400 C200,390 250,405 300,395 C350,385 400,405 450,395 C500,385 550,395 600,390 L600,430 L0,430 Z" 
        fill="url(#dataFlowGradient)" opacity="0.7" filter="url(#glow)" />
  
  <!-- Data particles in flow -->
  <g filter="url(#glow)">
    <circle cx="50" cy="400" r="3" fill="#ffffff" opacity="0.8" />
    <circle cx="90" cy="405" r="2" fill="#ffffff" opacity="0.8" />
    <circle cx="130" cy="398" r="3" fill="#ffffff" opacity="0.8" />
    <circle cx="180" cy="402" r="2" fill="#ffffff" opacity="0.8" />
    <circle cx="220" cy="395" r="3" fill="#ffffff" opacity="0.8" />
    <circle cx="260" cy="403" r="2" fill="#ffffff" opacity="0.8" />
    <circle cx="310" cy="396" r="3" fill="#ffffff" opacity="0.8" />
    <circle cx="350" cy="400" r="2" fill="#ffffff" opacity="0.8" />
    <circle cx="390" cy="404" r="3" fill="#ffffff" opacity="0.8" />
    <circle cx="430" cy="397" r="2" fill="#ffffff" opacity="0.8" />
    <circle cx="470" cy="401" r="3" fill="#ffffff" opacity="0.8" />
  </g>
  
  <!-- Digital Plants -->
  <!-- Plant 1 -->
  <g transform="translate(80, 330)">
    <path d="M0,0 L0,-60" stroke="#00cc66" stroke-width="3" />
    
    <path d="M0,-60 C10,-70 20,-65 30,-75 C40,-85 35,-95 25,-90 C15,-85 5,-90 0,-60" 
          fill="url(#plantGradient1)" />
    
    <path d="M0,-60 C-10,-70 -20,-65 -30,-75 C-40,-85 -35,-95 -25,-90 C-15,-85 -5,-90 0,-60" 
          fill="url(#plantGradient1)" />
          
    <path d="M0,-40 C15,-45 25,-40 35,-50 C45,-60 40,-70 30,-65 C20,-60 10,-65 0,-40" 
          fill="url(#plantGradient1)" />
          
    <path d="M0,-40 C-15,-45 -25,-40 -35,-50 C-45,-60 -40,-70 -30,-65 C-20,-60 -10,-65 0,-40" 
          fill="url(#plantGradient1)" />
    
    <!-- Data nodes -->
    <circle cx="25" cy="-85" r="5" fill="#3366ff" filter="url(#cellShadow)" />
    <circle cx="-25" cy="-85" r="5" fill="#3366ff" filter="url(#cellShadow)" />
    <circle cx="32" cy="-55" r="4" fill="#3366ff" filter="url(#cellShadow)" />
    <circle cx="-32" cy="-55" r="4" fill="#3366ff" filter="url(#cellShadow)" />
    <circle cx="0" cy="-60" r="6" fill="#3366ff" filter="url(#cellShadow)" />
  </g>
  
  <!-- Plant 2 -->
  <g transform="translate(200, 340)">
    <path d="M0,0 L0,-80" stroke="#00ccaa" stroke-width="3" />
    
    <path d="M0,-80 C5,-90 15,-95 25,-90 C35,-85 40,-95 30,-100 C20,-105 10,-100 0,-80" 
          fill="url(#plantGradient2)" />
    
    <path d="M0,-80 C-5,-90 -15,-95 -25,-90 C-35,-85 -40,-95 -30,-100 C-20,-105 -10,-100 0,-80" 
          fill="url(#plantGradient2)" />
    
    <path d="M0,-60 C8,-70 18,-75 28,-70 C38,-65 43,-75 33,-80 C23,-85 13,-80 0,-60" 
          fill="url(#plantGradient2)" />
    
    <path d="M0,-60 C-8,-70 -18,-75 -28,-70 C-38,-65 -43,-75 -33,-80 C-23,-85 -13,-80 0,-60" 
          fill="url(#plantGradient2)" />
    
    <path d="M0,-40 C10,-50 20,-55 30,-50 C40,-45 45,-55 35,-60 C25,-65 15,-60 0,-40" 
          fill="url(#plantGradient2)" />
    
    <path d="M0,-40 C-10,-50 -20,-55 -30,-50 C-40,-45 -45,-55 -35,-60 C-25,-65 -15,-60 0,-40" 
          fill="url(#plantGradient2)" />
    
    <!-- Data nodes -->
    <circle cx="25" cy="-93" r="4" fill="#cc33ff" filter="url(#cellShadow)" />
    <circle cx="-25" cy="-93" r="4" fill="#cc33ff" filter="url(#cellShadow)" />
    <circle cx="28" cy="-70" r="5" fill="#cc33ff" filter="url(#cellShadow)" />
    <circle cx="-28" cy="-70" r="5" fill="#cc33ff" filter="url(#cellShadow)" />
    <circle cx="28" cy="-50" r="4" fill="#cc33ff" filter="url(#cellShadow)" />
    <circle cx="-28" cy="-50" r="4" fill="#cc33ff" filter="url(#cellShadow)" />
    <circle cx="0" cy="-80" r="5" fill="#cc33ff" filter="url(#cellShadow)" />
  </g>
  
  <!-- Plant 3 -->
  <g transform="translate(350, 320)">
    <path d="M0,0 L0,-90" stroke="#00cc88" stroke-width="3" />
    
    <path d="M0,-90 C10,-100 20,-95 30,-105 C40,-115 35,-125 25,-120 C15,-115 5,-120 0,-90" 
          fill="url(#plantGradient1)" />
    
    <path d="M0,-90 C-10,-100 -20,-95 -30,-105 C-40,-115 -35,-125 -25,-120 C-15,-115 -5,-120 0,-90" 
          fill="url(#plantGradient1)" />
          
    <path d="M0,-70 C15,-75 25,-70 35,-80 C45,-90 40,-100 30,-95 C20,-90 10,-95 0,-70" 
          fill="url(#plantGradient1)" />
          
    <path d="M0,-70 C-15,-75 -25,-70 -35,-80 C-45,-90 -40,-100 -30,-95 C-20,-90 -10,-95 0,-70" 
          fill="url(#plantGradient1)" />
    
    <path d="M0,-50 C10,-60 20,-55 30,-65 C40,-75 35,-85 25,-80 C15,-75 5,-80 0,-50" 
          fill="url(#plantGradient1)" />
    
    <path d="M0,-50 C-10,-60 -20,-55 -30,-65 C-40,-75 -35,-85 -25,-80 C-15,-75 -5,-80 0,-50" 
          fill="url(#plantGradient1)" />
    
    <!-- Data nodes -->
    <circle cx="25" cy="-115" r="5" fill="#ffcc00" filter="url(#cellShadow)" />
    <circle cx="-25" cy="-115" r="5" fill="#ffcc00" filter="url(#cellShadow)" />
    <circle cx="30" cy="-85" r="4" fill="#ffcc00" filter="url(#cellShadow)" />
    <circle cx="-30" cy="-85" r="4" fill="#ffcc00" filter="url(#cellShadow)" />
    <circle cx="25" cy="-65" r="5" fill="#ffcc00" filter="url(#cellShadow)" />
    <circle cx="-25" cy="-65" r="5" fill="#ffcc00" filter="url(#cellShadow)" />
    <circle cx="0" cy="-90" r="6" fill="#ffcc00" filter="url(#cellShadow)" />
  </g>
  
  <!-- Digital Organisms/Cells -->
  <!-- Cell Cluster 1 -->
  <g transform="translate(120, 220)">
    <!-- Main cell body -->
    <circle cx="0" cy="0" r="25" fill="url(#blobGradient1)" filter="url(#cellShadow)" />
    
    <!-- Nucleus -->
    <circle cx="0" cy="0" r="10" fill="#09132d" opacity="0.7" />
    <circle cx="0" cy="0" r="6" fill="#ffffff" opacity="0.5" />
    
    <!-- Connection tentacles -->
    <path d="M20,15 C30,25 40,30 60,25" fill="none" stroke="#3366ff" stroke-width="2" />
    <path d="M-15,20 C-25,30 -35,35 -45,30" fill="none" stroke="#3366ff" stroke-width="2" />
    <path d="M-10,-20 C-15,-40 -20,-50 -25,-60" fill="none" stroke="#3366ff" stroke-width="2" />
    <path d="M15,-15 C25,-25 35,-35 40,-50" fill="none" stroke="#3366ff" stroke-width="2" />
    
    <!-- Data nodes on tentacles -->
    <circle cx="60" cy="25" r="5" fill="#3366ff" filter="url(#cellShadow)" />
    <circle cx="-45" cy="30" r="5" fill="#3366ff" filter="url(#cellShadow)" />
    <circle cx="-25" cy="-60" r="5" fill="#3366ff" filter="url(#cellShadow)" />
    <circle cx="40" cy="-50" r="5" fill="#3366ff" filter="url(#cellShadow)" />
  </g>
  
  <!-- Cell Cluster 2 -->
  <g transform="translate(250, 160)">
    <!-- Main cell body -->
    <circle cx="0" cy="0" r="30" fill="url(#blobGradient2)" filter="url(#cellShadow)" />
    
    <!-- Nucleus -->
    <circle cx="0" cy="0" r="12" fill="#09132d" opacity="0.7" />
    <circle cx="0" cy="0" r="7" fill="#ffffff" opacity="0.5" />
    
    <!-- Connection tentacles -->
    <path d="M25,15 C40,25 55,20 65,15" fill="none" stroke="#cc33ff" stroke-width="2" />
    <path d="M-20,20 C-35,30 -50,35 -60,25" fill="none" stroke="#cc33ff" stroke-width="2" />
    <path d="M-15,-25 C-20,-45 -25,-60 -15,-75" fill="none" stroke="#cc33ff" stroke-width="2" />
    <path d="M20,-20 C35,-35 45,-40 60,-35" fill="none" stroke="#cc33ff" stroke-width="2" />
    <path d="M0,30 C0,50 0,65 0,75" fill="none" stroke="#cc33ff" stroke-width="2" />
    
    <!-- Data nodes on tentacles -->
    <circle cx="65" cy="15" r="6" fill="#cc33ff" filter="url(#cellShadow)" />
    <circle cx="-60" cy="25" r="6" fill="#cc33ff" filter="url(#cellShadow)" />
    <circle cx="-15" cy="-75" r="6" fill="#cc33ff" filter="url(#cellShadow)" />
    <circle cx="60" cy="-35" r="6" fill="#cc33ff" filter="url(#cellShadow)" />
    <circle cx="0" cy="75" r="6" fill="#cc33ff" filter="url(#cellShadow)" />
  </g>
  
  <!-- Cell Cluster 3 -->
  <g transform="translate(380, 190)">
    <!-- Main cell body -->
    <circle cx="0" cy="0" r="28" fill="url(#blobGradient3)" filter="url(#cellShadow)" />
    
    <!-- Nucleus -->
    <circle cx="0" cy="0" r="11" fill="#09132d" opacity="0.7" />
    <circle cx="0" cy="0" r="6" fill="#ffffff" opacity="0.5" />
    
    <!-- Connection tentacles -->
    <path d="M-25,-10 C-35,-15 -55,-20 -70,-10" fill="none" stroke="#ffcc00" stroke-width="2" />
    <path d="M-15,20 C-25,35 -30,55 -20,65" fill="none" stroke="#ffcc00" stroke-width="2" />
    <path d="M20,20 C35,30 55,40 70,35" fill="none" stroke="#ffcc00" stroke-width="2" />
    <path d="M20,-20 C30,-35 35,-55 25,-70" fill="none" stroke="#ffcc00" stroke-width="2" />
    
    <!-- Data nodes on tentacles -->
    <circle cx="-70" cy="-10" r="5" fill="#ffcc00" filter="url(#cellShadow)" />
    <circle cx="-20" cy="65" r="5" fill="#ffcc00" filter="url(#cellShadow)" />
    <circle cx="70" cy="35" r="5" fill="#ffcc00" filter="url(#cellShadow)" />
    <circle cx="25" cy="-70" r="5" fill="#ffcc00" filter="url(#cellShadow)" />
  </g>
  
  <!-- Network Connections Between Organisms -->
  <g stroke-dasharray="2,2" opacity="0.7">
    <!-- Between cell clusters -->
    <path d="M180,220 C200,200 220,180 250,160" stroke="#3366ff" stroke-width="1.5" />
    <path d="M250,160 C300,170 350,180 380,190" stroke="#cc33ff" stroke-width="1.5" />
    
    <!-- From cells to plants -->
    <path d="M120,220 C100,250 90,280 80,270" stroke="#3366ff" stroke-width="1.5" />
    <path d="M250,230 C240,260 220,290 200,260" stroke="#cc33ff" stroke-width="1.5" />
    <path d="M380,218 C370,240 360,280 350,230" stroke="#ffcc00" stroke-width="1.5" />
  </g>
  
  <!-- Data flow particles -->
  <g filter="url(#glow)">
    <circle cx="200" cy="190" r="2" fill="#ffffff" opacity="0.9" />
    <circle cx="230" cy="170" r="1.5" fill="#ffffff" opacity="0.9" />
    <circle cx="320" cy="175" r="2" fill="#ffffff" opacity="0.9" />
    <circle cx="350" cy="185" r="1.5" fill="#ffffff" opacity="0.9" />
    
    <circle cx="110" cy="240" r="1.5" fill="#ffffff" opacity="0.9" />
    <circle cx="95" cy="260" r="2" fill="#ffffff" opacity="0.9" />
    
    <circle cx="245" cy="240" r="2" fill="#ffffff" opacity="0.9" />
    <circle cx="230" cy="260" r="1.5" fill="#ffffff" opacity="0.9" />
    
    <circle cx="375" cy="230" r="1.5" fill="#ffffff" opacity="0.9" />
    <circle cx="365" cy="255" r="2" fill="#ffffff" opacity="0.9" />
  </g>
  
  <!-- Background stars -->
  <g>
    <circle cx="50" cy="50" r="1" fill="#ffffff" opacity="0.8" />
    <circle cx="120" cy="80" r="1.5" fill="#ffffff" opacity="0.8" />
    <circle cx="200" cy="40" r="1" fill="#ffffff" opacity="0.8" />
    <circle cx="280" cy="60" r="1.5" fill="#ffffff" opacity="0.8" />
    <circle cx="350" cy="30" r="1" fill="#ffffff" opacity="0.8" />
    <circle cx="420" cy="70" r="1.5" fill="#ffffff" opacity="0.8" />
    <circle cx="480" cy="40" r="1" fill="#ffffff" opacity="0.8" />
    
    <circle cx="30" cy="120" r="1.5" fill="#ffffff" opacity="0.8" />
    <circle cx="90" cy="150" r="1" fill="#ffffff" opacity="0.8" />
    <circle cx="160" cy="100" r="1.5" fill="#ffffff" opacity="0.8" />
    <circle cx="300" cy="90" r="1" fill="#ffffff" opacity="0.8" />
    <circle cx="400" cy="120" r="1.5" fill="#ffffff" opacity="0.8" />
    <circle cx="450" cy="140" r="1" fill="#ffffff" opacity="0.8" />
  </g>
</svg> 