<svg width="500" height="500" xmlns="http://www.w3.org/2000/svg">
  <rect width="500" height="500" fill="#f5f5f5" />
  
  <defs>
    <!-- Gradients -->
    <linearGradient id="gradient1" x1="0%" y1="0%" x2="100%" y2="100%">
      <stop offset="0%" style="stop-color:#FF5F6D;stop-opacity:1" />
      <stop offset="100%" style="stop-color:#FFC371;stop-opacity:1" />
    </linearGradient>
    
    <linearGradient id="gradient2" x1="0%" y1="0%" x2="100%" y2="100%">
      <stop offset="0%" style="stop-color:#36D1DC;stop-opacity:1" />
      <stop offset="100%" style="stop-color:#5B86E5;stop-opacity:1" />
    </linearGradient>
    
    <linearGradient id="gradient3" x1="0%" y1="0%" x2="100%" y2="100%">
      <stop offset="0%" style="stop-color:#8E2DE2;stop-opacity:1" />
      <stop offset="100%" style="stop-color:#4A00E0;stop-opacity:1" />
    </linearGradient>
    
    <linearGradient id="gradient4" x1="0%" y1="0%" x2="100%" y2="0%">
      <stop offset="0%" style="stop-color:#56CCF2;stop-opacity:1" />
      <stop offset="100%" style="stop-color:#2F80ED;stop-opacity:1" />
    </linearGradient>
    
    <linearGradient id="gradient5" x1="0%" y1="0%" x2="100%" y2="100%">
      <stop offset="0%" style="stop-color:#F2994A;stop-opacity:1" />
      <stop offset="100%" style="stop-color:#F2C94C;stop-opacity:1" />
    </linearGradient>
    
    <linearGradient id="gradient6" x1="0%" y1="0%" x2="100%" y2="100%">
      <stop offset="0%" style="stop-color:#6D78AD;stop-opacity:1" />
      <stop offset="100%" style="stop-color:#A6C1EE;stop-opacity:1" />
    </linearGradient>
    
    <!-- Patterns -->
    <pattern id="pattern1" x="0" y="0" width="10" height="10" patternUnits="userSpaceOnUse">
      <rect width="5" height="5" fill="#ffffff" fill-opacity="0.1" />
      <rect x="5" y="5" width="5" height="5" fill="#ffffff" fill-opacity="0.1" />
    </pattern>
    
    <pattern id="pattern2" x="0" y="0" width="20" height="20" patternUnits="userSpaceOnUse">
      <circle cx="10" cy="10" r="2" fill="#ffffff" fill-opacity="0.1" />
    </pattern>
    
    <pattern id="pattern3" x="0" y="0" width="15" height="15" patternUnits="userSpaceOnUse">
      <line x1="0" y1="0" x2="15" y2="15" stroke="#ffffff" stroke-width="0.5" stroke-opacity="0.1" />
      <line x1="15" y1="0" x2="0" y2="15" stroke="#ffffff" stroke-width="0.5" stroke-opacity="0.1" />
    </pattern>
  </defs>
  
  <!-- Background subtle texture -->
  <rect width="500" height="500" fill="url(#pattern1)" />
  
  <!-- Main geometric shapes -->
  <!-- Large circle -->
  <circle cx="150" cy="150" r="100" fill="url(#gradient1)" opacity="0.9" />
  
  <!-- Small circles on the left -->
  <circle cx="80" cy="300" r="40" fill="url(#gradient2)" opacity="0.8" />
  <circle cx="150" cy="350" r="30" fill="url(#gradient3)" opacity="0.8" />
  
  <!-- Rectangles of various sizes -->
  <rect x="250" y="50" width="200" height="150" fill="url(#gradient4)" opacity="0.9" />
  <rect x="300" y="250" width="150" height="200" fill="url(#gradient5)" opacity="0.9" />
  
  <!-- Overlaid transparent shapes -->
  <circle cx="370" cy="130" r="60" fill="url(#gradient6)" opacity="0.5" />
  <circle cx="350" cy="330" r="70" fill="url(#gradient2)" opacity="0.6" />
  
  <!-- Abstract triangular forms -->
  <polygon points="180,150 250,200 200,250" fill="url(#gradient3)" opacity="0.7" />
  <polygon points="220,100 300,150 270,50" fill="url(#gradient5)" opacity="0.8" />
  
  <!-- Connecting lines -->
  <g stroke-width="2" opacity="0.5" stroke-linecap="round">
    <line x1="150" y1="150" x2="250" y2="50" stroke="#5B86E5" />
    <line x1="150" y1="150" x2="300" y2="250" stroke="#F2994A" />
    <line x1="80" y1="300" x2="150" y2="350" stroke="#4A00E0" />
    <line x1="150" y1="350" x2="300" y2="250" stroke="#F2C94C" />
    <line x1="250" y1="50" x2="370" y2="130" stroke="#56CCF2" />
    <line x1="300" y1="250" x2="350" y2="330" stroke="#FF5F6D" />
  </g>
  
  <!-- Smaller geometric elements -->
  <!-- Small squares -->
  <rect x="100" y="250" width="15" height="15" fill="#F2994A" opacity="0.9" transform="rotate(45, 107.5, 257.5)" />
  <rect x="290" y="380" width="20" height="20" fill="#5B86E5" opacity="0.9" transform="rotate(30, 300, 390)" />
  <rect x="380" y="220" width="25" height="25" fill="#FF5F6D" opacity="0.9" transform="rotate(15, 392.5, 232.5)" />
  <rect x="420" y="120" width="15" height="15" fill="#8E2DE2" opacity="0.9" transform="rotate(60, 427.5, 127.5)" />
  
  <!-- Small triangles -->
  <polygon points="200,380 220,410 180,410" fill="#36D1DC" opacity="0.8" />
  <polygon points="240,40 260,80 220,80" fill="#FFC371" opacity="0.8" />
  <polygon points="430,300 450,330 410,330" fill="#4A00E0" opacity="0.8" />
  
  <!-- Small circles -->
  <circle cx="50" cy="200" r="10" fill="#FF5F6D" opacity="0.9" />
  <circle cx="450" cy="250" r="12" fill="#36D1DC" opacity="0.9" />
  <circle cx="200" cy="65" r="8" fill="#F2994A" opacity="0.9" />
  <circle cx="350" cy="420" r="15" fill="#8E2DE2" opacity="0.9" />
  
  <!-- Decorative elements -->
  <!-- Dotted lines -->
  <g stroke-width="1.5" stroke-dasharray="3,3" opacity="0.4">
    <line x1="50" y1="50" x2="150" y2="150" stroke="#5B86E5" />
    <line x1="450" y1="50" x2="370" y2="130" stroke="#F2994A" />
    <line x1="50" y1="450" x2="150" y2="350" stroke="#8E2DE2" />
    <line x1="450" y1="450" x2="350" y2="330" stroke="#FF5F6D" />
    <line x1="150" y1="150" x2="370" y2="130" stroke="#36D1DC" />
  </g>
  
  <!-- Subtle texture overlays -->
  <rect x="250" y="50" width="200" height="150" fill="url(#pattern2)" />
  <rect x="300" y="250" width="150" height="200" fill="url(#pattern3)" />
  <circle cx="150" cy="150" r="100" fill="url(#pattern3)" />
  
  <!-- Fine detail geometric accents -->
  <g opacity="0.7">
    <rect x="190" y="170" width="5" height="40" fill="#ffffff" transform="rotate(30, 192.5, 190)" />
    <rect x="320" y="130" width="5" height="30" fill="#ffffff" transform="rotate(60, 322.5, 145)" />
    <rect x="370" y="280" width="5" height="35" fill="#ffffff" transform="rotate(45, 372.5, 297.5)" />
    <rect x="110" y="110" width="5" height="25" fill="#ffffff" transform="rotate(15, 112.5, 122.5)" />
  </g>
  
  <!-- Small decorative circles at intersections -->
  <circle cx="150" cy="150" r="5" fill="#ffffff" />
  <circle cx="250" cy="50" r="5" fill="#ffffff" />
  <circle cx="300" cy="250" r="5" fill="#ffffff" />
  <circle cx="80" cy="300" r="4" fill="#ffffff" />
  <circle cx="150" cy="350" r="4" fill="#ffffff" />
  <circle cx="370" cy="130" r="5" fill="#ffffff" />
  <circle cx="350" cy="330" r="5" fill="#ffffff" />
</svg> 