<svg width="500" height="500" xmlns="http://www.w3.org/2000/svg">
  <rect width="500" height="500" fill="#495057" />
  <defs>
    <linearGradient id="grad1" x1="0%" y1="0%" x2="100%" y2="0%">
      <stop offset="0%" style="stop-color:#ff6b6b;stop-opacity:1" />
      <stop offset="50%" style="stop-color:#ffd43b;stop-opacity:1" />
      <stop offset="100%" style="stop-color:#40c057;stop-opacity:1" />
    </linearGradient>
  </defs>
  <path d="M250,250 
           m-125,0 a125,125 0 1,1 250,0 a125,125 0 1,1 -250,0
           m25,0 a100,100 0 1,0 200,0 a100,100 0 1,0 -200,0
           m25,0 a75,75 0 1,1 150,0 a75,75 0 1,1 -150,0
           m25,0 a50,50 0 1,0 100,0 a50,50 0 1,0 -100,0
           m25,0 a25,25 0 1,1 50,0 a25,25 0 1,1 -50,0"
        fill="none" stroke="url(#grad1)" stroke-width="15" />
</svg> 