<svg width="500" height="500" xmlns="http://www.w3.org/2000/svg">
  <rect width="500" height="500" fill="#212529" />
  <defs>
    <linearGradient id="grad1" x1="0%" y1="0%" x2="0%" y2="100%">
      <stop offset="0%" style="stop-color:#1c7ed6;stop-opacity:1" />
      <stop offset="50%" style="stop-color:#339af0;stop-opacity:1" />
      <stop offset="100%" style="stop-color:#74c0fc;stop-opacity:1" />
    </linearGradient>
  </defs>
  
  <path d="M0,250 C100,200 150,300 250,250 C350,200 400,300 500,250" 
        stroke="url(#grad1)" stroke-width="20" fill="none" />
  
  <path d="M0,150 C100,100 150,200 250,150 C350,100 400,200 500,150" 
        stroke="url(#grad1)" stroke-width="15" fill="none" />
  
  <path d="M0,350 C100,300 150,400 250,350 C350,300 400,400 500,350" 
        stroke="url(#grad1)" stroke-width="15" fill="none" />
        
  <path d="M0,100 C100,50 150,150 250,100 C350,50 400,150 500,100" 
        stroke="url(#grad1)" stroke-width="10" fill="none" />
        
  <path d="M0,400 C100,350 150,450 250,400 C350,350 400,450 500,400" 
        stroke="url(#grad1)" stroke-width="10" fill="none" />
</svg> 